<svg xmlns="http://www.w3.org/2000/svg"  viewBox="0 0 100 100"><circle cx="77" cy="13" r="1" fill="#f1bc19"/><circle cx="50" cy="50" r="37" fill="#e4e4f9"/><circle cx="50" cy="50" r="37" fill="#e4e4f9"/><circle cx="83" cy="15" r="4" fill="#f1bc19"/><circle cx="87" cy="24" r="2" fill="#8889b9"/><circle cx="81" cy="76" r="2" fill="#fbcd59"/><circle cx="15" cy="63" r="4" fill="#fbcd59"/><circle cx="25" cy="87" r="2" fill="#8889b9"/><circle cx="79.5" cy="33.5" r="1.5" fill="#fff"/><g><path fill="#472b29" d="M46.141,55.601c-0.093,0-0.186-0.025-0.269-0.079l-0.557-0.358C43.136,53.754,40.424,52,36.5,52 c-2.984,0-4.951,1.315-6.853,2.586c-0.379,0.254-0.755,0.505-1.134,0.744c-0.232,0.146-0.542,0.078-0.689-0.157 c-0.147-0.234-0.077-0.542,0.156-0.689c0.372-0.234,0.74-0.48,1.111-0.728C31.022,52.464,33.212,51,36.5,51 c4.22,0,7.069,1.843,9.358,3.324l0.551,0.355c0.233,0.148,0.302,0.458,0.153,0.69C46.467,55.519,46.306,55.601,46.141,55.601z"/></g><g><path fill="#472b29" d="M52.707,55.819c-0.157,0-0.313-0.075-0.41-0.214c-0.158-0.227-0.103-0.538,0.124-0.696 c0.301-0.209,0.602-0.436,0.914-0.67c0.631-0.474,1.282-0.963,2.064-1.429c0.233-0.14,0.543-0.064,0.686,0.174 c0.142,0.237,0.063,0.544-0.174,0.686c-0.736,0.438-1.366,0.911-1.976,1.369c-0.322,0.242-0.633,0.476-0.942,0.691 C52.905,55.79,52.806,55.819,52.707,55.819z"/></g><g><path fill="#472b29" d="M72.524,56.518c-0.104,0-0.207-0.032-0.297-0.098c-0.425-0.314-0.844-0.656-1.275-1.01 C69.001,53.812,66.789,52,62.5,52c-1.519,0-2.852,0.181-4.077,0.552c-0.268,0.08-0.544-0.069-0.624-0.333s0.069-0.543,0.333-0.624 C59.453,51.195,60.882,51,62.5,51c4.646,0,7.005,1.932,9.086,3.637c0.418,0.342,0.823,0.675,1.235,0.979 c0.223,0.164,0.27,0.477,0.105,0.699C72.829,56.448,72.678,56.518,72.524,56.518z"/></g><g><path fill="#472b29" d="M53.631,34.601c-0.165,0-0.326-0.082-0.422-0.231c-0.148-0.233-0.08-0.542,0.153-0.69l0.551-0.355 C56.202,31.843,59.052,30,63.271,30c3.288,0,5.478,1.464,7.408,2.755c0.371,0.248,0.739,0.494,1.111,0.728 c0.233,0.147,0.304,0.456,0.156,0.689c-0.146,0.235-0.455,0.303-0.689,0.157c-0.379-0.239-0.755-0.49-1.134-0.744 C68.223,32.315,66.256,31,63.271,31c-3.924,0-6.636,1.754-8.815,3.164l-0.557,0.358C53.816,34.575,53.724,34.601,53.631,34.601z"/></g><g><path fill="#472b29" d="M47.064,34.819c-0.099,0-0.198-0.029-0.286-0.09c-0.31-0.216-0.621-0.449-0.943-0.692 c-0.609-0.458-1.239-0.931-1.975-1.369c-0.237-0.141-0.315-0.448-0.174-0.685c0.142-0.238,0.449-0.314,0.686-0.174 c0.781,0.466,1.434,0.955,2.063,1.428c0.313,0.235,0.614,0.461,0.915,0.67c0.227,0.158,0.282,0.469,0.124,0.696 C47.378,34.744,47.222,34.819,47.064,34.819z"/></g><g><path fill="#472b29" d="M27.247,35.518c-0.153,0-0.305-0.07-0.402-0.203c-0.164-0.222-0.117-0.535,0.105-0.699 c0.412-0.304,0.817-0.636,1.235-0.979C30.267,31.932,32.625,30,37.271,30c1.618,0,3.047,0.195,4.368,0.595 c0.264,0.08,0.413,0.359,0.333,0.624c-0.079,0.264-0.355,0.414-0.624,0.333C40.123,31.181,38.79,31,37.271,31 c-4.289,0-6.501,1.812-8.452,3.411c-0.432,0.353-0.851,0.696-1.275,1.01C27.455,35.486,27.351,35.518,27.247,35.518z"/></g><g><path fill="#00a5a5" d="M75,45.3c-4.05,0-6.152-2.019-7.842-3.641c-1.569-1.507-2.56-2.359-4.657-2.359 c-2.096,0-3.085,0.852-4.654,2.359c-1.688,1.622-3.79,3.641-7.84,3.641c-4.051,0-6.154-2.019-7.844-3.64 c-1.571-1.507-2.562-2.36-4.66-2.36c-2.098,0-3.088,0.853-4.658,2.359C31.154,43.281,29.051,45.3,25,45.3 c-1.269,0-2.3-1.032-2.3-2.3s1.031-2.3,2.3-2.3c2.099,0,3.089-0.853,4.659-2.359c1.69-1.622,3.794-3.641,7.844-3.641 c4.051,0,6.154,2.019,7.844,3.64c1.571,1.507,2.562,2.36,4.66,2.36c2.096,0,3.085-0.852,4.654-2.359 c1.688-1.622,3.79-3.641,7.84-3.641s6.153,2.019,7.843,3.641C71.913,39.848,72.902,40.7,75,40.7c1.269,0,2.3,1.032,2.3,2.3 S76.269,45.3,75,45.3z"/><path fill="#472b29" d="M62.501,35.4c3.768,0,5.759,1.91,7.358,3.445C71.507,40.429,72.638,41.4,75,41.4 c0.882,0,1.6,0.718,1.6,1.6s-0.718,1.6-1.6,1.6c-3.769,0-5.758-1.911-7.357-3.446c-1.65-1.584-2.781-2.554-5.142-2.554 c-2.36,0-3.49,0.97-5.139,2.554c-1.598,1.536-3.587,3.446-7.355,3.446c-3.77,0-5.76-1.911-7.36-3.446 c-1.65-1.583-2.782-2.554-5.144-2.554c-2.361,0-3.492,0.97-5.143,2.554C30.76,42.689,28.77,44.6,25,44.6 c-0.882,0-1.6-0.718-1.6-1.6s0.718-1.6,1.6-1.6c2.362,0,3.494-0.971,5.144-2.555c1.599-1.535,3.59-3.445,7.358-3.445 c3.77,0,5.76,1.911,7.36,3.446c1.65,1.583,2.782,2.554,5.144,2.554c2.36,0,3.49-0.97,5.139-2.554 C56.744,37.311,58.733,35.4,62.501,35.4 M62.501,34c-4.331,0-6.64,2.217-8.325,3.836C52.654,39.298,51.842,40,50.007,40 c-1.838,0-2.651-0.703-4.175-2.165C44.146,36.217,41.836,34,37.503,34c-4.332,0-6.642,2.217-8.328,3.835 C27.651,39.297,26.838,40,25,40c-1.657,0-3,1.343-3,3s1.343,3,3,3c4.333,0,6.643-2.217,8.329-3.836 C34.853,40.703,35.666,40,37.503,40c1.838,0,2.651,0.703,4.175,2.165C43.364,43.783,45.674,46,50.007,46 c4.331,0,6.64-2.217,8.325-3.836C59.854,40.702,60.666,40,62.501,40c1.837,0,2.65,0.703,4.173,2.164 C68.359,43.783,70.669,46,75,46c1.657,0,3-1.343,3-3s-1.343-3-3-3c-1.836,0-2.649-0.702-4.171-2.164 C69.143,36.217,66.833,34,62.501,34L62.501,34z"/></g><g><path fill="#00a5a5" d="M75,66.3c-4.05,0-6.152-2.019-7.842-3.641c-1.569-1.507-2.56-2.359-4.657-2.359 c-2.096,0-3.085,0.852-4.654,2.359c-1.688,1.622-3.79,3.641-7.84,3.641c-4.051,0-6.154-2.019-7.844-3.64 c-1.571-1.507-2.562-2.36-4.66-2.36c-2.098,0-3.088,0.853-4.658,2.359C31.154,64.281,29.051,66.3,25,66.3 c-1.269,0-2.3-1.032-2.3-2.3s1.031-2.3,2.3-2.3c2.099,0,3.089-0.853,4.659-2.359c1.69-1.622,3.794-3.641,7.844-3.641 c4.051,0,6.154,2.019,7.844,3.64c1.571,1.507,2.562,2.36,4.66,2.36c2.096,0,3.085-0.852,4.654-2.359 c1.688-1.622,3.79-3.641,7.84-3.641s6.153,2.019,7.843,3.641C71.913,60.848,72.902,61.7,75,61.7c1.269,0,2.3,1.032,2.3,2.3 S76.269,66.3,75,66.3z"/><path fill="#472b29" d="M62.501,56.4c3.768,0,5.759,1.91,7.358,3.445C71.507,61.429,72.638,62.4,75,62.4 c0.882,0,1.6,0.718,1.6,1.6s-0.718,1.6-1.6,1.6c-3.769,0-5.758-1.911-7.357-3.446c-1.65-1.584-2.781-2.554-5.142-2.554 c-2.36,0-3.49,0.97-5.139,2.554c-1.598,1.536-3.587,3.446-7.355,3.446c-3.77,0-5.76-1.911-7.36-3.446 c-1.65-1.583-2.782-2.554-5.144-2.554c-2.361,0-3.492,0.97-5.143,2.554C30.76,63.689,28.77,65.6,25,65.6 c-0.882,0-1.6-0.718-1.6-1.6s0.718-1.6,1.6-1.6c2.362,0,3.494-0.971,5.144-2.555c1.599-1.535,3.59-3.445,7.358-3.445 c3.77,0,5.76,1.911,7.36,3.446c1.65,1.583,2.782,2.554,5.144,2.554c2.36,0,3.49-0.97,5.139-2.554 C56.744,58.311,58.733,56.4,62.501,56.4 M62.501,55c-4.331,0-6.64,2.217-8.325,3.836C52.654,60.298,51.842,61,50.007,61 c-1.838,0-2.651-0.703-4.175-2.165C44.146,57.217,41.836,55,37.503,55c-4.332,0-6.642,2.217-8.328,3.835 C27.651,60.297,26.838,61,25,61c-1.657,0-3,1.343-3,3s1.343,3,3,3c4.333,0,6.643-2.217,8.329-3.836 C34.853,61.703,35.666,61,37.503,61c1.838,0,2.651,0.703,4.175,2.165C43.364,64.783,45.674,67,50.007,67 c4.331,0,6.64-2.217,8.325-3.836C59.854,61.702,60.666,61,62.501,61c1.837,0,2.65,0.703,4.173,2.164 C68.359,64.783,70.669,67,75,67c1.657,0,3-1.343,3-3s-1.343-3-3-3c-1.836,0-2.649-0.702-4.171-2.164 C69.143,57.217,66.833,55,62.501,55L62.501,55z"/></g></svg>