<svg xmlns="http://www.w3.org/2000/svg"  viewBox="0 0 100 100"><path fill="#ee3e54" d="M13,27c-1.105,0-2,0.895-2,2s0.895,2,2,2s2-0.895,2-2S14.105,27,13,27z"/><path fill="#f1bc19" d="M77,12c-0.551,0-1,0.449-1,1s0.449,1,1,1s1-0.449,1-1S77.551,12,77,12z"/><path fill="#fce0a2" d="M50,13c-20.434,0-37,16.566-37,37s16.566,37,37,37s37-16.566,37-37S70.434,13,50,13z"/><path fill="#f1bc19" d="M83,11c-2.211,0-4,1.789-4,4s1.789,4,4,4s4-1.789,4-4S85.211,11,83,11z"/><path fill="#ee3e54" d="M87,22c-1.105,0-2,0.895-2,2s0.895,2,2,2s2-0.895,2-2S88.105,22,87,22z"/><path fill="#fbcd59" d="M81,74c-1.105,0-2,0.895-2,2s0.895,2,2,2s2-0.895,2-2S82.105,74,81,74z M15,59 c-2.211,0-4,1.789-4,4s1.789,4,4,4s4-1.789,4-4S17.211,59,15,59z"/><path fill="#ee3e54" d="M25,85c-1.105,0-2,0.895-2,2s0.895,2,2,2s2-0.895,2-2S26.105,85,25,85z"/><path fill="#fff" d="M18.5,48c-1.379,0-2.5,1.121-2.5,2.5s1.121,2.5,2.5,2.5s2.5-1.121,2.5-2.5S19.879,48,18.5,48z"/><path fill="#f1bc19" d="M21,66c-0.551,0-1,0.449-1,1s0.449,1,1,1s1-0.449,1-1S21.551,66,21,66z"/><path fill="#fff" d="M80,33c-0.551,0-1,0.449-1,1s0.449,1,1,1s1-0.449,1-1S80.551,33,80,33z"/><g><path fill="#00a5a5" d="M50.008,74.3c-0.119-0.002-0.224-0.009-0.331-0.024c-0.146-0.028-0.249-0.058-0.353-0.09 l-0.099-0.027c-0.148-0.053-0.278-0.113-0.4-0.186l-0.082-0.063c-0.091-0.06-0.18-0.12-0.259-0.191l-0.107-0.114 c-0.064-0.066-0.129-0.13-0.185-0.202l-0.094-0.14c-0.045-0.068-0.093-0.138-0.131-0.215c-0.021-0.041-0.034-0.074-0.048-0.108 c-0.055-0.136-0.087-0.211-0.11-0.291c-0.018-0.061-0.03-0.131-0.044-0.201l-0.029-0.121c-0.128-0.921-3.012-21.956-7.581-32.951 c-1.301-3.133-3.587-5.011-6.115-5.026c-2.109,0-3.938,1.354-4.912,3.622c-0.363,0.846-1.193,1.392-2.116,1.392 c-0.542,0-1.061-0.192-1.502-0.554c-0.752-0.617-0.996-1.756-0.582-2.707c1.704-3.912,5.186-6.342,9.084-6.342 c4.428,0.025,8.388,3.036,10.391,7.856c1.698,4.086,3.34,9.788,4.879,16.947c0.08,0.378,0.406,0.643,0.792,0.642 c0.384,0,0.709-0.262,0.792-0.638c1.545-7.11,3.136-12.796,4.729-16.9c1.878-4.837,5.761-7.89,10.134-7.966l0.209-0.002 c3.827,0,7.294,2.363,9.046,6.167c0.544,1.179,0.226,2.528-0.74,3.136c-0.376,0.237-0.804,0.363-1.236,0.363h-0.001 c-0.922,0-1.753-0.547-2.117-1.393c-0.989-2.306-2.856-3.683-4.994-3.683c-2.59,0.045-4.805,1.927-6.012,5.037 c-4.411,11.362-7.567,32.794-7.599,33.01l-0.038,0.146c-0.02,0.091-0.029,0.142-0.045,0.191c-0.025,0.085-0.058,0.158-0.09,0.233 l-0.07,0.162c-0.042,0.079-0.093,0.153-0.143,0.226l-0.087,0.129c-0.061,0.076-0.129,0.143-0.198,0.21l-0.074,0.077 c-0.124,0.113-0.239,0.198-0.36,0.27c-0.172,0.088-0.28,0.141-0.393,0.182l-0.127,0.033c-0.098,0.029-0.198,0.056-0.303,0.072 l-0.11,0.025c-0.03,0-0.229,0.008-0.229,0.008H50.008z"/><path fill="#472b29" d="M65.937,30.4L65.937,30.4c3.551,0,6.774,2.207,8.411,5.759c0.342,0.743,0.257,1.788-0.478,2.251 c-0.268,0.169-0.559,0.254-0.864,0.254c-0.642,0-1.221-0.38-1.474-0.967c-1.103-2.572-3.211-4.108-5.638-4.108l-0.099,0.001 c-2.797,0.049-5.252,2.099-6.566,5.482c-4.349,11.203-7.463,31.981-7.631,33.113c-0.014,0.05-0.027,0.101-0.041,0.17 c-0.008,0.039-0.015,0.078-0.026,0.116c-0.017,0.056-0.041,0.107-0.062,0.157l-0.027,0.063l-0.022,0.052 c-0.029,0.054-0.065,0.103-0.103,0.159l-0.056,0.088c-0.04,0.051-0.088,0.095-0.138,0.143c-0.029,0.028-0.057,0.058-0.092,0.096 c-0.053,0.043-0.106,0.083-0.161,0.119l-0.034,0.015l-0.061,0.034c-0.074,0.041-0.139,0.072-0.195,0.094 c-0.039,0.01-0.078,0.02-0.113,0.031c-0.071,0.021-0.142,0.042-0.226,0.055c-0.026,0.004-0.052,0.009-0.077,0.015 c-0.043,0.003-0.092,0.005-0.16,0.006h-0.004c-0.048,0-0.097-0.002-0.147-0.007l-0.008-0.002l-0.091-0.015 c-0.077-0.013-0.15-0.036-0.223-0.058c-0.035-0.011-0.07-0.021-0.113-0.032c-0.067-0.026-0.131-0.056-0.19-0.089 c-0.031-0.023-0.063-0.046-0.099-0.071c-0.062-0.041-0.124-0.08-0.166-0.12l-0.089-0.094c-0.044-0.044-0.089-0.086-0.135-0.15 l-0.051-0.079c-0.034-0.051-0.069-0.1-0.095-0.151l-0.028-0.066l-0.022-0.055c-0.021-0.05-0.043-0.1-0.06-0.156 c-0.013-0.042-0.019-0.086-0.03-0.142c-0.009-0.047-0.02-0.094-0.035-0.149c-0.183-1.338-3.066-22.108-7.615-33.055 c-1.412-3.401-3.938-5.441-6.78-5.457c-2.38,0-4.449,1.513-5.536,4.046c-0.253,0.588-0.831,0.968-1.473,0.968 c-0.378,0-0.744-0.137-1.058-0.395c-0.515-0.423-0.677-1.217-0.385-1.887c1.591-3.652,4.827-5.921,8.443-5.921h0.052 c4.086,0.023,7.8,2.869,9.693,7.425c1.683,4.051,3.312,9.711,4.84,16.825c0.151,0.704,0.759,1.195,1.477,1.195 c0.717,0,1.324-0.49,1.476-1.192c1.536-7.072,3.117-12.722,4.698-16.794c1.773-4.566,5.41-7.448,9.499-7.519L65.937,30.4 M65.937,29c-0.074,0-0.147,0.001-0.221,0.002c-4.662,0.082-8.791,3.304-10.774,8.412c-1.86,4.791-3.479,11.105-4.761,17.003 c-0.013,0.06-0.06,0.089-0.108,0.089c-0.048,0-0.095-0.03-0.108-0.089c-1.276-5.936-2.93-12.287-4.916-17.068 c-2.113-5.085-6.32-8.261-10.978-8.288c-0.021,0-0.039,0-0.06,0c-4.188,0-7.905,2.584-9.726,6.762 c-0.527,1.211-0.241,2.689,0.779,3.528c0.596,0.489,1.28,0.713,1.947,0.713c1.163,0,2.272-0.68,2.76-1.816 c0.874-2.038,2.471-3.198,4.25-3.198c0.005,0,0.01,0,0.015,0c2.237,0.013,4.283,1.73,5.472,4.594 c4.622,11.121,7.498,32.539,7.528,32.753c0.008,0.063,0.029,0.121,0.042,0.183c0.018,0.091,0.035,0.181,0.061,0.27 c0.03,0.102,0.068,0.197,0.108,0.293c0.031,0.074,0.059,0.148,0.095,0.22c0.052,0.103,0.114,0.197,0.177,0.292 c0.039,0.059,0.075,0.121,0.118,0.176c0.073,0.095,0.156,0.18,0.24,0.264c0.047,0.048,0.089,0.1,0.139,0.145 c0.105,0.094,0.22,0.174,0.337,0.251c0.038,0.025,0.071,0.057,0.11,0.08c0.159,0.095,0.328,0.175,0.503,0.24 c0.048,0.018,0.099,0.027,0.148,0.042c0.135,0.042,0.27,0.08,0.412,0.103c0.017,0.002,0.032,0.01,0.05,0.012 c0.138,0.02,0.275,0.029,0.411,0.03c0.006,0,0.011,0.001,0.017,0.001c0.001,0,0.002,0,0.002,0c0.002,0,0.004,0,0.005,0 c0.01,0,0.02-0.002,0.031-0.003c0.119-0.001,0.238-0.007,0.359-0.024c0.021-0.002,0.04-0.011,0.061-0.014 c0.136-0.021,0.267-0.055,0.396-0.093c0.054-0.016,0.111-0.026,0.164-0.045c0.148-0.054,0.289-0.122,0.426-0.197 c0.027-0.015,0.058-0.024,0.084-0.04c0.158-0.093,0.306-0.203,0.444-0.322c0.044-0.039,0.081-0.085,0.123-0.126 c0.09-0.088,0.18-0.177,0.258-0.277c0.042-0.053,0.076-0.111,0.115-0.168c0.066-0.096,0.13-0.191,0.185-0.295 c0.036-0.069,0.064-0.141,0.095-0.212c0.042-0.098,0.083-0.195,0.114-0.298c0.026-0.084,0.043-0.169,0.062-0.256 c0.014-0.064,0.036-0.125,0.046-0.19c0.031-0.215,3.176-21.57,7.558-32.857c1.101-2.835,3.077-4.551,5.286-4.589 c0.025,0,0.05-0.001,0.074-0.001c1.851,0,3.474,1.214,4.351,3.26c0.489,1.136,1.598,1.816,2.76,1.816 c0.544,0,1.1-0.149,1.61-0.47c1.324-0.834,1.658-2.6,1.003-4.021C73.746,31.508,70.066,29,65.937,29L65.937,29z"/><path fill="#472b29" d="M55.368,73.737c-0.027,0-0.055-0.002-0.082-0.007c-0.272-0.044-0.457-0.302-0.412-0.574 c0.327-2.003,0.656-3.896,0.982-5.681c0.051-0.272,0.313-0.449,0.582-0.402c0.271,0.05,0.452,0.31,0.402,0.582 c-0.326,1.779-0.653,3.665-0.98,5.662C55.82,73.563,55.608,73.737,55.368,73.737z"/><path fill="#472b29" d="M57.044,64.413c-0.032,0-0.065-0.003-0.098-0.01c-0.271-0.053-0.447-0.316-0.394-0.587 c0.403-2.044,0.821-4.028,1.241-5.896c0.061-0.269,0.331-0.438,0.598-0.378c0.27,0.061,0.439,0.328,0.379,0.598 c-0.419,1.859-0.835,3.834-1.237,5.87C57.486,64.248,57.277,64.413,57.044,64.413z"/><path fill="#472b29" d="M59.063,55.197c-0.039,0-0.079-0.005-0.118-0.014c-0.269-0.065-0.433-0.336-0.367-0.604 c1.93-7.916,3.354-11.404,3.413-11.549c0.104-0.255,0.397-0.376,0.652-0.271c0.255,0.105,0.377,0.397,0.271,0.653 c-0.014,0.035-1.457,3.576-3.366,11.405C59.492,55.044,59.288,55.197,59.063,55.197z"/><path fill="#472b29" d="M50.021,45.5c-0.238,0-0.449-0.171-0.491-0.415c-0.755-4.36-2.095-8.131-3.981-11.209 c-0.144-0.235-0.07-0.543,0.165-0.688c0.236-0.143,0.544-0.071,0.688,0.165c1.952,3.186,3.336,7.076,4.112,11.561 c0.048,0.272-0.135,0.531-0.407,0.578C50.078,45.498,50.049,45.5,50.021,45.5z"/><g><path fill="#472b29" d="M44.167,31.581c-0.144,0-0.285-0.061-0.385-0.18c-1.769-2.126-3.238-2.93-3.253-2.938 c-0.242-0.131-0.334-0.434-0.204-0.677s0.431-0.335,0.676-0.206c0.065,0.035,1.644,0.889,3.551,3.181 c0.176,0.212,0.147,0.528-0.064,0.704C44.394,31.543,44.28,31.581,44.167,31.581z"/></g></g></svg>