<svg xmlns="http://www.w3.org/2000/svg"  viewBox="0 0 100 100"><path fill="#ee3e54" d="M13,27c-1.105,0-2,0.895-2,2s0.895,2,2,2s2-0.895,2-2S14.105,27,13,27z"/><path fill="#f1bc19" d="M77,12c-0.551,0-1,0.449-1,1s0.449,1,1,1s1-0.449,1-1S77.551,12,77,12z"/><path fill="#fce0a2" d="M50,13c-20.434,0-37,16.566-37,37s16.566,37,37,37s37-16.566,37-37S70.434,13,50,13z"/><path fill="#f1bc19" d="M83,11c-2.211,0-4,1.789-4,4s1.789,4,4,4s4-1.789,4-4S85.211,11,83,11z"/><path fill="#ee3e54" d="M87,22c-1.105,0-2,0.895-2,2s0.895,2,2,2s2-0.895,2-2S88.105,22,87,22z"/><path fill="#fbcd59" d="M81,74c-1.105,0-2,0.895-2,2s0.895,2,2,2s2-0.895,2-2S82.105,74,81,74z M15,59 c-2.211,0-4,1.789-4,4s1.789,4,4,4s4-1.789,4-4S17.211,59,15,59z"/><path fill="#ee3e54" d="M25,85c-1.105,0-2,0.895-2,2s0.895,2,2,2s2-0.895,2-2S26.105,85,25,85z"/><path fill="#fff" d="M18.5,48c-1.379,0-2.5,1.121-2.5,2.5s1.121,2.5,2.5,2.5s2.5-1.121,2.5-2.5S19.879,48,18.5,48z"/><path fill="#f1bc19" d="M21,66c-0.551,0-1,0.449-1,1s0.449,1,1,1s1-0.449,1-1S21.551,66,21,66z"/><path fill="#fff" d="M80,33c-0.551,0-1,0.449-1,1s0.449,1,1,1s1-0.449,1-1S80.551,33,80,33z"/><g><path fill="#00a5a5" d="M63.5,55.3c-5.955,0-10.8-4.845-10.8-10.8c0-4.022,2.224-7.688,5.805-9.566l1.532-0.804 l-1.66-0.488c-2.99-0.878-6.296-1.343-9.56-1.343c-7.554,0-14.733,2.623-19.205,7.016c-0.434,0.425-1.006,0.659-1.613,0.659 c-0.622,0-1.204-0.244-1.639-0.688c-0.89-0.905-0.877-2.365,0.027-3.253C31.7,30.816,40.085,27.7,48.817,27.7 c14.289,0,25.482,7.037,25.482,16.021l-0.023,0.198l0.011,0.299c0.006,0.093,0.013,0.187,0.013,0.281 C74.3,50.455,69.455,55.3,63.5,55.3z M63.5,38.3c-3.419,0-6.2,2.781-6.2,6.2s2.781,6.2,6.2,6.2s6.2-2.781,6.2-6.2 S66.919,38.3,63.5,38.3z"/><path fill="#472b29" d="M48.817,28.4c13.884,0,24.763,6.717,24.783,15.297c0-0.004,0-0.006-0.001-0.006 c0,0-0.001,0.001-0.001,0.005c-0.007,0.054-0.014,0.109-0.019,0.164l-0.008,0.092l0.004,0.093 c0.003,0.074,0.008,0.148,0.013,0.222c0.005,0.077,0.012,0.155,0.012,0.233c0,5.569-4.531,10.1-10.1,10.1s-10.1-4.531-10.1-10.1 c0-3.761,2.081-7.189,5.43-8.946l3.065-1.607l-3.321-0.976c-3.054-0.897-6.428-1.371-9.757-1.371 c-7.733,0-15.096,2.698-19.696,7.216c-0.302,0.296-0.7,0.459-1.123,0.459c-0.433,0-0.837-0.169-1.14-0.478 c-0.618-0.63-0.61-1.645,0.019-2.263C32.063,31.441,40.265,28.4,48.817,28.4 M63.5,51.4c3.805,0,6.9-3.095,6.9-6.9 s-3.095-6.9-6.9-6.9s-6.9,3.095-6.9,6.9S59.695,51.4,63.5,51.4 M48.817,27c-8.912,0-17.479,3.191-22.92,8.536 c-1.182,1.161-1.198,3.061-0.037,4.243c0.586,0.598,1.362,0.897,2.139,0.897c0.759,0,1.519-0.286,2.103-0.86 C34.446,35.548,41.442,33,48.817,33c3.328,0,6.528,0.482,9.363,1.314C54.512,36.238,52,40.079,52,44.5 C52,50.841,57.159,56,63.5,56S75,50.841,75,44.5c0-0.175-0.019-0.346-0.026-0.519C74.981,43.894,75,43.81,75,43.721 C75,34.345,63.499,27,48.817,27L48.817,27z M63.5,50c-3.032,0-5.5-2.467-5.5-5.5s2.468-5.5,5.5-5.5s5.5,2.467,5.5,5.5 S66.532,50,63.5,50L63.5,50z"/></g><g><path fill="#00a5a5" d="M51.183,73.3C36.894,73.3,25.7,66.263,25.7,57.279l0.023-0.198l-0.011-0.299 C25.707,56.688,25.7,56.595,25.7,56.5c0-5.955,4.845-10.8,10.8-10.8s10.8,4.845,10.8,10.8c0,4.022-2.224,7.688-5.805,9.566 l-1.532,0.804l1.66,0.488c2.99,0.878,6.296,1.343,9.56,1.343c7.554,0,14.733-2.623,19.205-7.016 c0.434-0.425,1.006-0.659,1.612-0.659c0.622,0,1.205,0.244,1.641,0.688c0.889,0.905,0.876,2.364-0.028,3.253 C68.3,70.184,59.915,73.3,51.183,73.3z M36.5,50.3c-3.419,0-6.2,2.781-6.2,6.2s2.781,6.2,6.2,6.2s6.2-2.781,6.2-6.2 S39.919,50.3,36.5,50.3z"/><path fill="#472b29" d="M36.5,46.4c5.569,0,10.1,4.531,10.1,10.1c0,3.761-2.081,7.189-5.43,8.946l-3.065,1.607l3.321,0.976 c3.054,0.897,6.428,1.371,9.757,1.371c7.733,0,15.096-2.698,19.696-7.217c0.301-0.296,0.699-0.458,1.121-0.458 c0.433,0,0.838,0.169,1.141,0.478c0.618,0.63,0.61,1.645-0.019,2.263C67.937,69.559,59.735,72.6,51.183,72.6 c-13.884,0-24.763-6.717-24.783-15.297c0,0.004,0,0.006,0.001,0.006c0,0,0.001-0.001,0.001-0.005 c0.007-0.054,0.014-0.109,0.019-0.164l0.008-0.092l-0.004-0.093c-0.003-0.074-0.008-0.148-0.013-0.222 C26.406,56.656,26.4,56.579,26.4,56.5C26.4,50.931,30.931,46.4,36.5,46.4 M36.5,63.4c3.805,0,6.9-3.095,6.9-6.9 s-3.095-6.9-6.9-6.9s-6.9,3.095-6.9,6.9S32.695,63.4,36.5,63.4 M36.5,45C30.159,45,25,50.159,25,56.5 c0,0.175,0.019,0.346,0.026,0.519C25.019,57.106,25,57.19,25,57.279C25,66.655,36.501,74,51.183,74 c8.912,0,17.479-3.191,22.92-8.536c1.182-1.161,1.198-3.061,0.037-4.243c-0.587-0.598-1.363-0.897-2.139-0.897 c-0.759,0-1.519,0.286-2.103,0.86C65.554,65.452,58.558,68,51.183,68c-3.328,0-6.528-0.482-9.363-1.314 C45.488,64.762,48,60.921,48,56.5C48,50.159,42.841,45,36.5,45L36.5,45z M36.5,62c-3.032,0-5.5-2.467-5.5-5.5s2.468-5.5,5.5-5.5 s5.5,2.467,5.5,5.5S39.532,62,36.5,62L36.5,62z"/></g><g><path fill="#472b29" d="M51.376,37.25c-0.024,0-0.05-0.002-0.074-0.005c-1.226-0.182-2.447-0.269-3.674-0.263 c-0.298-0.015-0.501-0.221-0.503-0.497c-0.002-0.276,0.221-0.501,0.497-0.503c1.246-0.007,2.551,0.083,3.826,0.273 c0.273,0.041,0.462,0.295,0.421,0.568C51.833,37.072,51.619,37.25,51.376,37.25z"/></g><g><path fill="#472b29" d="M32.125,42.875c-0.13,0-0.259-0.05-0.356-0.15c-0.193-0.197-0.19-0.513,0.006-0.707 c0.201-0.198,5.019-4.856,13.039-5.853c0.269-0.036,0.523,0.16,0.558,0.434c0.034,0.274-0.16,0.524-0.435,0.558 c-7.67,0.954-12.414,5.528-12.461,5.574C32.378,42.827,32.251,42.875,32.125,42.875z"/></g><g><path fill="#472b29" d="M51.583,65.932c-0.004,0-0.008,0-0.012,0c-1.265-0.029-2.549-0.159-3.817-0.386 c-0.272-0.049-0.453-0.309-0.404-0.58c0.048-0.272,0.313-0.453,0.58-0.404c1.219,0.219,2.451,0.343,3.665,0.371 c0.275,0.006,0.494,0.235,0.488,0.511C52.076,65.716,51.854,65.932,51.583,65.932z"/></g><g><path fill="#472b29" d="M54.336,65.834c-0.255,0-0.473-0.194-0.497-0.453c-0.025-0.275,0.176-0.519,0.451-0.545 c7.694-0.727,12.572-5.159,12.62-5.204c0.203-0.186,0.518-0.176,0.707,0.028c0.188,0.202,0.175,0.519-0.027,0.706 c-0.207,0.192-5.16,4.705-13.206,5.466C54.368,65.834,54.353,65.834,54.336,65.834z"/></g></svg>