<svg xmlns="http://www.w3.org/2000/svg"  viewBox="0 0 100 100" ><circle cx="77" cy="13" r="1" fill="#f1bc19"/><circle cx="50" cy="50" r="37" fill="#e6edb7"/><circle cx="83" cy="15" r="4" fill="#f1bc19"/><circle cx="87" cy="24" r="2" fill="#9f8066"/><circle cx="81" cy="76" r="2" fill="#fbcd59"/><path fill="#fbcd59" d="M18,64c0,2.209-0.791,4-3,4s-4-1.791-4-4c0-2.209,1.791-4,4-4S18,61.791,18,64z"/><circle cx="25" cy="87" r="2" fill="#9f8066"/><circle cx="20.5" cy="52.5" r="2.5" fill="#fff"/><circle cx="79.5" cy="40.5" r="1.5" fill="#fff"/><g><path fill="#00a5a5" d="M49,77.3c-0.734,0-1.43-0.355-1.862-0.95c-0.44-0.606-0.554-1.385-0.31-2.135 c0.29-0.892,1.205-1.515,2.225-1.515h2.633c1.96,0,4.489-1.321,5.883-3.073c0.314-0.393,0.26-0.966-0.126-1.302 c-2.379-2.068-3.742-5.031-3.742-8.128v-19.79c0-4.521-3.679-8.2-8.2-8.2c-0.622,0-1.251,0.07-1.872,0.209 c-3.667,0.819-6.329,4.26-6.329,8.182V65c0,1.268-1.032,2.3-2.3,2.3c-0.259,0-0.523-0.043-0.785-0.128 c-0.892-0.29-1.515-1.205-1.515-2.225V37.704c0-2.723-2.275-5.034-4.417-5.825c-0.727-0.269-1.266-0.882-1.442-1.638 c-0.181-0.777,0.056-1.582,0.648-2.207c0.38-0.401,0.94-0.631,1.536-0.631c0.272,0,0.538,0.047,0.792,0.139 c2.109,0.766,3.945,2.129,5.31,3.942l0.21,0.279l0.397,0.024h0.295l0.25-0.23c2.448-2.548,5.721-3.949,9.221-3.949 c0.799,0,1.611,0.075,2.414,0.223C53.932,28.938,58.3,34.352,58.3,40.702V56c-0.005,0.115-0.122,3.418,0.026,4.835 c0.042,0.406,0.382,0.714,0.791,0.714c0.363,0,0.684-0.245,0.779-0.597C61.77,54.132,65.881,52.7,69,52.7 c4.094,0,7.3,3.431,7.3,7.811c0,5.53-5.463,10.567-11.461,10.567c-0.681,0-1.365-0.061-2.034-0.182l-0.062-0.011l-0.479-0.001 l-0.252,0.383c-1.967,3.44-6.405,6.034-10.326,6.034H49z M69,57.3c-1.6,0-3.585,0.59-4.753,5.194l-0.683,3.353l0.199,0.303 c0.131,0.176,0.331,0.287,0.549,0.306c0.241,0.021,0.476,0.031,0.704,0.031c4.36,0,6.684-3.47,6.684-5.976 C71.7,58.932,70.69,57.3,69,57.3z"/><path fill="#472b29" d="M29.025,28.103L29.025,28.103c0.19,0,0.377,0.033,0.553,0.097c1.981,0.72,3.707,2,4.99,3.704 c0.275,0.365,0.711,0.583,1.166,0.583l0.64-0.019l0.413-0.43c2.312-2.406,5.406-3.73,8.713-3.73c0.757,0,1.527,0.071,2.287,0.211 c5.686,1.047,9.813,6.171,9.813,12.184v15.272c-0.012,0.345-0.119,3.519,0.03,4.934c0.08,0.764,0.72,1.34,1.487,1.34 c0.677,0,1.275-0.457,1.454-1.111C61.982,56.003,64.818,53.4,69,53.4c3.701,0,6.6,3.124,6.6,7.111 c0,5.164-5.129,9.867-10.761,9.867c-0.639,0-1.281-0.058-1.917-0.173l-0.13-0.021H62.67c-0.525,0-1.012,0.284-1.267,0.735 c-1.851,3.239-6.029,5.682-9.718,5.682H49c-0.518,0-0.991-0.241-1.296-0.662c-0.181-0.249-0.448-0.775-0.21-1.507 c0.197-0.607,0.838-1.032,1.559-1.032h2.633c2.479,0,5.112-1.679,6.432-3.338c0.547-0.689,0.451-1.685-0.217-2.266 c-2.225-1.935-3.501-4.704-3.501-7.599V56V40.407c0-4.907-3.992-8.9-8.9-8.9c-0.673,0-1.354,0.076-2.024,0.226 c-3.984,0.89-6.876,4.619-6.876,8.865V51v14c0,0.882-0.718,1.6-1.6,1.6c-0.186,0-0.377-0.032-0.568-0.094 c-0.607-0.197-1.031-0.838-1.031-1.559V51V40.407v-2.703c0-3.072-2.452-5.586-4.873-6.482c-0.506-0.187-0.881-0.614-1.004-1.141 c-0.074-0.319-0.112-0.948,0.475-1.566C28.246,28.253,28.621,28.103,29.025,28.103 M65.016,67.187 c4.818,0,7.384-3.877,7.384-6.676c0-1.922-1.272-3.911-3.4-3.911c-1.708,0-4.13,0.593-5.431,5.722l-0.008,0.032l-0.007,0.033 l-0.613,3.012c-0.083,0.408,0.012,0.834,0.262,1.169c0.25,0.335,0.632,0.549,1.052,0.586 C64.514,67.176,64.768,67.187,65.016,67.187 M29.025,26.703c-0.761,0-1.51,0.287-2.043,0.849 c-1.642,1.731-0.889,4.262,1.059,4.983C29.96,33.245,32,35.298,32,37.704v2.703V51v13.947c0,1.285,0.777,2.494,1.999,2.891 C34.339,67.948,34.676,68,35,68c1.657,0,3-1.343,3-3V51V40.598c0-3.522,2.344-6.73,5.781-7.499 c0.583-0.13,1.158-0.192,1.719-0.192c4.136,0,7.5,3.365,7.5,7.5V56v4.197c0,3.439,1.541,6.533,3.982,8.656 c0.1,0.087,0.121,0.235,0.039,0.339C55.827,70.692,53.519,72,51.686,72h-2.633c-1.285,0-2.494,0.777-2.891,1.999 C45.486,76.08,47.019,78,49,78h2.686c3.906,0,8.72-2.514,10.933-6.387c0.011-0.019,0.03-0.03,0.051-0.03 c0.004,0,0.007,0,0.011,0.001c0.7,0.126,1.421,0.193,2.158,0.193c6.364,0,12.161-5.37,12.161-11.267C77,55.738,73.486,52,69,52 c-3.386,0-7.793,1.538-9.778,8.768c-0.015,0.054-0.061,0.082-0.104,0.082c-0.045,0-0.089-0.029-0.095-0.087 C58.876,59.378,59,56,59,56V40.702c0-6.538-4.529-12.376-10.959-13.561c-0.86-0.159-1.71-0.234-2.541-0.234 c-3.819,0-7.264,1.602-9.722,4.16c-0.012,0.013-0.028,0.019-0.043,0.019c-0.018,0-0.036-0.008-0.048-0.024 c-1.396-1.854-3.344-3.348-5.63-4.178C29.723,26.762,29.373,26.703,29.025,26.703L29.025,26.703z M65.016,65.787 c-0.209,0-0.423-0.009-0.642-0.028c-0.039-0.003-0.069-0.042-0.061-0.08l0.613-3.013C66.109,58,68.061,58,69,58 c1.252,0,2,1.276,2,2.511C71,62.745,68.849,65.787,65.016,65.787L65.016,65.787z"/></g><g><path fill="#472b29" d="M41.061,50.989c-0.276,0-0.5-0.224-0.5-0.5V42.5c0-1.013,0-4.097,1.799-5.861 c0.899-0.881,2.123-1.311,3.594-1.283c0.276,0.006,0.496,0.234,0.49,0.51s-0.228,0.491-0.51,0.49 c-1.218-0.033-2.175,0.311-2.874,0.997c-1.5,1.47-1.5,4.237-1.5,5.147v7.989C41.561,50.765,41.337,50.989,41.061,50.989z"/></g><g><path fill="#472b29" d="M41.061,56.271c-0.276,0-0.5-0.224-0.5-0.5v-2.665c0-0.276,0.224-0.5,0.5-0.5s0.5,0.224,0.5,0.5 v2.665C41.561,56.047,41.337,56.271,41.061,56.271z"/></g><g><path fill="#472b29" d="M41.061,65c-0.276,0-0.5-0.224-0.5-0.5v-5.617c0-0.276,0.224-0.5,0.5-0.5s0.5,0.224,0.5,0.5V64.5 C41.561,64.776,41.337,65,41.061,65z"/></g><g><path fill="#472b29" d="M77.5,53c-0.143,0-0.285-0.061-0.384-0.18c-2.584-3.1-5.819-3.788-8.079-3.819 c-0.276-0.004-0.497-0.231-0.493-0.507c0.004-0.276,0.188-0.514,0.507-0.493c2.469,0.034,6.006,0.786,8.833,4.179 c0.177,0.212,0.148,0.527-0.063,0.704C77.727,52.962,77.613,53,77.5,53z"/></g><g><path fill="#472b29" d="M62.5,51c-0.128,0-0.256-0.049-0.354-0.146c-0.195-0.195-0.195-0.512,0-0.707 c0.776-0.776,2.231-1.462,3.894-1.834c0.273-0.059,0.537,0.109,0.598,0.379c0.06,0.27-0.109,0.537-0.379,0.597 c-1.748,0.392-2.905,1.065-3.405,1.566C62.756,50.951,62.628,51,62.5,51z"/></g></svg>