<svg xmlns="http://www.w3.org/2000/svg"  viewBox="0 0 100 100" ><circle cx="78" cy="14" r="1" fill="#f1bc19"/><circle cx="50" cy="50" r="38" fill="#f9dbd2"/><circle cx="84" cy="16" r="4" fill="#f1bc19"/><circle cx="14" cy="26" r="2" fill="#ee3e54"/><circle cx="78" cy="77" r="2" fill="#fbcd59"/><circle cx="17" cy="78" r="4" fill="#fbcd59"/><circle cx="24" cy="83" r="2" fill="#ee3e54"/><circle cx="36.483" cy="78.517" r="2.483" fill="#fff"/><circle cx="16" cy="48" r="1" fill="#fff"/><circle cx="86" cy="31" r="1" fill="#f1bc19"/><circle cx="80" cy="66" r="2" fill="#fff"/><g><path fill="#00a5a5" d="M60.15,75.3c-5.21,0-9.45-4.172-9.45-9.3c0-0.163,0.005-0.314,0.013-0.459 C50.705,65.314,50.7,65.163,50.7,65c0-6.096,3.248-11.837,6.114-16.901C58.725,44.723,60.7,41.235,60.7,39 c0-4.96-3.999-8.7-9.3-8.7c-5.273,0-9.1,3.659-9.1,8.7c0,2.721,1.119,5.52,2.304,8.483C45.929,50.8,47.3,54.229,47.3,58 c0,5.128-4.172,9.3-9.3,9.3s-9.3-4.172-9.3-9.3s4.172-9.3,9.3-9.3c0.357,0,0.709,0.025,1.056,0.065l1.154,0.131l-0.423-1.082 C38.777,45.232,37.7,42.208,37.7,39c0-7.582,5.89-13.3,13.7-13.3c7.794,0,13.9,5.842,13.9,13.3c0,3.446-2.076,7.114-4.479,11.36 C58.232,54.933,55.3,60.114,55.3,65c0,0.163-0.005,0.314-0.013,0.459C55.295,65.686,55.3,65.837,55.3,66 c0,2.592,2.176,4.7,4.85,4.7c2.594,0,4.55-2.021,4.55-4.7c0-1.268,1.032-2.3,2.3-2.3s2.3,1.032,2.3,2.3 C69.3,71.215,65.281,75.3,60.15,75.3z M38,53.3c-2.592,0-4.7,2.108-4.7,4.7s2.108,4.7,4.7,4.7s4.7-2.108,4.7-4.7 S40.592,53.3,38,53.3z"/><path fill="#472b29" d="M51.4,26.4c7.402,0,13.2,5.535,13.2,12.6c0,3.261-2.034,6.855-4.39,11.019 C57.58,54.664,54.6,59.929,54.6,65c0,0.148-0.005,0.287-0.012,0.418L54.583,65.5l0.005,0.082C54.595,65.713,54.6,65.852,54.6,66 c0,2.978,2.49,5.4,5.55,5.4c2.993,0,5.25-2.321,5.25-5.4c0-0.882,0.718-1.6,1.6-1.6s1.6,0.718,1.6,1.6c0,4.822-3.712,8.6-8.45,8.6 c-4.825,0-8.75-3.858-8.75-8.6c0-0.148,0.005-0.287,0.012-0.418l0.005-0.082l-0.005-0.082C51.405,65.287,51.4,65.148,51.4,65 c0-5.912,3.2-11.567,6.025-16.559C59.469,44.831,61.4,41.419,61.4,39c0-5.359-4.299-9.4-10-9.4c-5.678,0-9.8,3.953-9.8,9.4 c0,2.855,1.143,5.715,2.354,8.743C45.255,50.998,46.6,54.364,46.6,58c0,4.742-3.858,8.6-8.6,8.6s-8.6-3.858-8.6-8.6 s3.858-8.6,8.6-8.6c0.301,0,0.62,0.02,0.977,0.061l2.308,0.263l-0.846-2.164C39.453,45.036,38.4,42.085,38.4,39 C38.4,31.817,43.989,26.4,51.4,26.4 M38,63.4c2.978,0,5.4-2.422,5.4-5.4s-2.422-5.4-5.4-5.4s-5.4,2.422-5.4,5.4 S35.022,63.4,38,63.4 M51.4,25C43.19,25,37,31.019,37,39c0,3.221,1.012,6.197,2.135,9.069C38.762,48.027,38.384,48,38,48 c-5.514,0-10,4.486-10,10s4.486,10,10,10s10-4.486,10-10c0-3.905-1.396-7.398-2.746-10.776C44.095,44.324,43,41.585,43,39 c0-4.636,3.533-8,8.4-8c4.903,0,8.6,3.439,8.6,8c0,2.05-1.928,5.457-3.793,8.752C53.297,52.893,50,58.718,50,65 c0,0.178,0.005,0.343,0.015,0.5C50.005,65.657,50,65.822,50,66c0,5.514,4.553,10,10.15,10C65.673,76,70,71.607,70,66 c0-1.657-1.343-3-3-3s-3,1.343-3,3c0,2.28-1.655,4-3.85,4C57.862,70,56,68.206,56,66c0-0.178-0.005-0.343-0.015-0.5 C55.995,65.343,56,65.178,56,65c0-4.702,2.884-9.797,5.428-14.292C63.881,46.374,66,42.631,66,39C66,31.149,59.587,25,51.4,25 L51.4,25z M38,62c-2.206,0-4-1.794-4-4s1.794-4,4-4s4,1.794,4,4S40.206,62,38,62L38,62z"/></g><g><path fill="#472b29" d="M59.469,64.585c-0.036,0-0.072-0.004-0.109-0.012c-0.27-0.06-0.439-0.327-0.38-0.596l0.103-0.475 c0.29-1.347,0.686-3.192,1.756-5.829c0.104-0.256,0.396-0.378,0.651-0.275c0.256,0.104,0.379,0.396,0.275,0.651 c-1.038,2.556-1.423,4.352-1.705,5.663l-0.104,0.481C59.905,64.427,59.698,64.585,59.469,64.585z"/></g><g><path fill="#472b29" d="M62.9,54.906c-0.077,0-0.155-0.018-0.229-0.056c-0.246-0.126-0.342-0.428-0.215-0.673 c0.805-1.562,1.763-3.216,2.846-4.914c0.148-0.233,0.458-0.301,0.69-0.153c0.232,0.148,0.301,0.458,0.152,0.69 c-1.066,1.673-2.009,3.3-2.8,4.835C63.256,54.808,63.081,54.906,62.9,54.906z"/></g><g><path fill="#472b29" d="M67.577,46.651c-0.069,0-0.14-0.015-0.208-0.046c-0.251-0.115-0.361-0.412-0.246-0.663 c4.282-9.342-0.076-15.185-1.513-16.753c-0.187-0.204-0.173-0.52,0.031-0.707c0.204-0.187,0.52-0.173,0.707,0.031 c3.179,3.468,5.291,9.978,1.685,17.845C67.948,46.542,67.767,46.651,67.577,46.651z"/></g><g><path fill="#472b29" d="M34.766,44.67c-0.219,0-0.42-0.145-0.481-0.366c-2.053-7.383,0.144-12.53,2.348-15.547 c0.163-0.223,0.476-0.272,0.699-0.109c0.223,0.163,0.271,0.476,0.109,0.699c-3.017,4.13-3.754,9.072-2.192,14.689 c0.074,0.266-0.082,0.542-0.348,0.616C34.855,44.664,34.81,44.67,34.766,44.67z"/></g><g><path fill="#472b29" d="M39.48,26.852c-0.137,0-0.272-0.056-0.372-0.165c-0.185-0.205-0.168-0.521,0.037-0.706 c1.764-1.589,3.251-2.334,3.314-2.365c0.247-0.123,0.546-0.021,0.669,0.226c0.123,0.247,0.021,0.547-0.226,0.67 c-0.014,0.007-1.434,0.721-3.088,2.211C39.719,26.809,39.6,26.852,39.48,26.852z"/></g></svg>