<svg xmlns="http://www.w3.org/2000/svg"  viewBox="0 0 100 100" ><path fill="#ee3e54" d="M13,27c-1.105,0-2,0.895-2,2s0.895,2,2,2s2-0.895,2-2S14.105,27,13,27z"/><path fill="#f1bc19" d="M77,12c-0.551,0-1,0.449-1,1s0.449,1,1,1s1-0.449,1-1S77.551,12,77,12z"/><path fill="#fce0a2" d="M50,13c-20.434,0-37,16.566-37,37s16.566,37,37,37s37-16.566,37-37S70.434,13,50,13z"/><path fill="#f1bc19" d="M83,11c-2.211,0-4,1.789-4,4s1.789,4,4,4s4-1.789,4-4S85.211,11,83,11z"/><path fill="#ee3e54" d="M87,22c-1.105,0-2,0.895-2,2s0.895,2,2,2s2-0.895,2-2S88.105,22,87,22z"/><path fill="#fbcd59" d="M81,74c-1.105,0-2,0.895-2,2s0.895,2,2,2s2-0.895,2-2S82.105,74,81,74z M15,59 c-2.211,0-4,1.789-4,4s1.789,4,4,4s4-1.789,4-4S17.211,59,15,59z"/><path fill="#ee3e54" d="M25,85c-1.105,0-2,0.895-2,2s0.895,2,2,2s2-0.895,2-2S26.105,85,25,85z"/><path fill="#fff" d="M19.5,38c-1.379,0-2.5,1.121-2.5,2.5s1.121,2.5,2.5,2.5s2.5-1.121,2.5-2.5S20.879,38,19.5,38z"/><path fill="#f1bc19" d="M17,54c-0.551,0-1,0.449-1,1s0.449,1,1,1s1-0.449,1-1S17.551,54,17,54z"/><path fill="#fff" d="M80,33c-0.551,0-1,0.449-1,1s0.449,1,1,1s1-0.449,1-1S80.551,33,80,33z"/><g><path fill="#00a5a5" d="M25,68.3c-1.268,0-2.3-1.032-2.3-2.3s1.032-2.3,2.3-2.3h50c1.268,0,2.3,1.032,2.3,2.3 s-1.032,2.3-2.3,2.3H25z"/><path fill="#472b29" d="M75,64.4c0.882,0,1.6,0.718,1.6,1.6s-0.718,1.6-1.6,1.6H25c-0.882,0-1.6-0.718-1.6-1.6 s0.718-1.6,1.6-1.6H75 M75,63H25c-1.657,0-3,1.343-3,3s1.343,3,3,3h50c1.657,0,3-1.343,3-3S76.657,63,75,63L75,63z"/><g><path fill="#00a5a5" d="M41.365,57.258l-0.079,0.01C41.131,57.289,41.067,57.3,41,57.3H25c-1.268,0-2.3-1.032-2.3-2.3 s1.032-2.3,2.3-2.3h10.166l-0.777-1.103c-1.759-2.496-2.688-5.387-2.688-8.359C31.7,34.119,39.909,26.7,50,26.7 s18.3,7.419,18.3,16.538c0,2.818-1.01,5.706-2.92,8.352l-0.801,1.11H75c1.268,0,2.3,1.032,2.3,2.3s-1.032,2.3-2.3,2.3H59 c-0.037,0-0.072-0.007-0.107-0.012l-0.201-0.023l-0.08,0.01c-0.098,0.012-0.196,0.019-0.293,0.019 c-0.805,0-1.537-0.406-1.957-1.087c-0.323-0.522-0.422-1.139-0.281-1.737s0.507-1.105,1.03-1.427 c3.185-1.965,6.588-5.573,6.588-9.805C63.7,36.656,57.554,31.3,50,31.3s-13.7,5.355-13.7,11.938c0,3.904,2.368,7.458,6.497,9.751 c0.537,0.298,0.926,0.788,1.095,1.378s0.098,1.212-0.201,1.749c-0.405,0.729-1.174,1.182-2.009,1.184 C41.553,57.28,41.365,57.258,41.365,57.258z"/><path fill="#472b29" d="M50,27.4c9.705,0,17.6,7.105,17.6,15.838c0,2.67-0.964,5.416-2.788,7.942L63.209,53.4h2.738H75 c0.882,0,1.6,0.718,1.6,1.6s-0.718,1.6-1.6,1.6l-15.96,0.001l-0.052-0.007l-0.144-0.018l-0.16-0.017l-0.16,0.021 c-0.068,0.009-0.137,0.013-0.205,0.013c-0.561,0-1.069-0.282-1.361-0.754c-0.463-0.75-0.229-1.738,0.521-2.201 c3.346-2.064,6.921-5.881,6.921-10.4C64.4,36.27,57.94,30.6,50,30.6S35.6,36.27,35.6,43.238c0,4.166,2.499,7.943,6.857,10.363 c0.374,0.208,0.644,0.548,0.761,0.958c0.117,0.411,0.068,0.843-0.14,1.217c-0.274,0.494-0.789,0.806-1.353,0.823 c0,0-0.001,0-0.002,0c-0.07-0.012-0.14-0.022-0.21-0.03l-0.158-0.016l-0.158,0.02l-0.1,0.014 C41.063,56.592,41.027,56.598,41,56.6H25c-0.882,0-1.6-0.718-1.6-1.6s0.718-1.6,1.6-1.6h8.816h2.699l-1.555-2.206 c-1.675-2.377-2.561-5.128-2.561-7.956C32.4,34.505,40.295,27.4,50,27.4 M50,26c-10.477,0-19,7.733-19,17.238 c0,3.18,0.989,6.169,2.816,8.762H25c-1.657,0-3,1.343-3,3s1.343,3,3,3h16c0.128,0,0.25-0.022,0.374-0.038 C41.475,57.973,41.576,58,41.677,58c1.055,0,2.078-0.557,2.625-1.544c0.805-1.449,0.283-3.275-1.166-4.079 C39.237,50.211,37,46.88,37,43.238C37,37.041,42.832,32,50,32s13,5.041,13,11.238c0,3.943-3.231,7.343-6.256,9.209 c-1.41,0.87-1.848,2.718-0.978,4.128c0.567,0.918,1.548,1.419,2.552,1.419c0.127,0,0.255-0.008,0.382-0.024 C58.801,57.98,58.898,58,59,58h16c1.657,0,3-1.343,3-3s-1.343-3-3-3h-9.053C67.902,49.293,69,46.247,69,43.238 C69,33.733,60.477,26,50,26L50,26z"/></g></g><g><path fill="#472b29" d="M57.998,48.318c-0.105,0-0.212-0.033-0.303-0.103c-0.22-0.167-0.262-0.481-0.094-0.701 C58.516,46.315,59,44.927,59,43.5c0-0.816-0.157-1.618-0.465-2.385c-0.103-0.256,0.021-0.547,0.277-0.651 c0.256-0.103,0.547,0.02,0.651,0.277C59.819,41.627,60,42.555,60,43.5c0,1.648-0.555,3.246-1.604,4.621 C58.298,48.25,58.149,48.318,57.998,48.318z"/></g><g><path fill="#472b29" d="M56.855,38.462c-0.117,0-0.235-0.041-0.33-0.124c-0.913-0.801-2.044-1.434-3.271-1.832 c-0.263-0.085-0.407-0.367-0.322-0.63c0.085-0.262,0.369-0.407,0.629-0.322c1.356,0.439,2.609,1.141,3.623,2.031 c0.208,0.182,0.229,0.498,0.046,0.706C57.132,38.404,56.994,38.462,56.855,38.462z"/></g><g><path fill="#472b29" d="M42.457,39.136c-0.12,0-0.241-0.043-0.336-0.13c-0.205-0.186-0.219-0.502-0.033-0.706 C43.997,36.203,46.881,35,50,35c0.276,0,0.5,0.224,0.5,0.5S50.276,36,50,36c-2.838,0-5.453,1.083-7.173,2.973 C42.728,39.081,42.593,39.136,42.457,39.136z"/></g></svg>