<svg xmlns="http://www.w3.org/2000/svg"  viewBox="0 0 100 100"  ><circle cx="77" cy="13" r="1" fill="#f1bc19"/><circle cx="50" cy="50" r="37" fill="#e4e4f9"/><circle cx="50" cy="50" r="37" fill="#e4e4f9"/><circle cx="83" cy="15" r="4" fill="#f1bc19"/><circle cx="87" cy="24" r="2" fill="#8889b9"/><circle cx="81" cy="76" r="2" fill="#fbcd59"/><circle cx="15" cy="63" r="4" fill="#fbcd59"/><circle cx="25" cy="87" r="2" fill="#8889b9"/><circle cx="79.5" cy="33.5" r="1.5" fill="#fff"/><g><path fill="#00a5a5" d="M66.171,72.818c-0.812,0-1.548-0.414-1.969-1.108c-3.373-5.559-5.474-12.033-6.075-18.723 l-0.058-0.637H43.362l-0.058,0.637c-0.602,6.69-2.702,13.164-6.075,18.723c-0.421,0.693-1.157,1.107-1.969,1.107 c-0.418,0-0.83-0.116-1.191-0.334c-1.083-0.658-1.43-2.075-0.771-3.159c2.928-4.827,4.797-10.43,5.404-16.201l0.081-0.773H34 c-1.269,0-2.3-1.032-2.3-2.3s1.031-2.3,2.3-2.3h4.911l-0.039-0.737c-0.341-6.351-2.242-12.192-5.499-16.894 c-0.722-1.042-0.462-2.478,0.58-3.2c0.388-0.268,0.84-0.41,1.308-0.41c0.757,0,1.464,0.37,1.894,0.99 c3.771,5.442,5.943,12.214,6.282,19.583l0.03,0.668h14.498l0.03-0.668c0.339-7.369,2.512-14.141,6.282-19.583 c0.43-0.62,1.137-0.99,1.894-0.99c0.468,0,0.92,0.142,1.308,0.41c1.042,0.722,1.302,2.158,0.58,3.2 C64.802,34.82,62.9,40.662,62.56,47.012l-0.039,0.737H67c1.269,0,2.3,1.032,2.3,2.3s-1.031,2.3-2.3,2.3h-4.352l0.081,0.773 c0.607,5.771,2.477,11.374,5.404,16.201c0.658,1.084,0.312,2.501-0.772,3.16C67.001,72.702,66.59,72.818,66.171,72.818z"/><path fill="#472b29" d="M66.17,27.209c0.325,0,0.64,0.099,0.909,0.285c0.725,0.503,0.906,1.501,0.404,2.227 c-3.331,4.807-5.275,10.773-5.622,17.254l-0.079,1.475h1.477H67c0.882,0,1.6,0.718,1.6,1.6s-0.718,1.6-1.6,1.6h-3.574H61.87 l0.163,1.546c0.619,5.875,2.521,11.577,5.502,16.491c0.458,0.754,0.216,1.74-0.537,2.197c-0.251,0.152-0.537,0.233-0.828,0.233 c-0.565,0-1.078-0.288-1.37-0.771c-3.317-5.468-5.384-11.838-5.976-18.423L58.71,51.65h-1.28H44.002h-1.28l-0.115,1.274 c-0.592,6.584-2.659,12.955-5.976,18.422c-0.293,0.483-0.805,0.771-1.371,0.771c-0.29,0-0.577-0.081-0.827-0.232 c-0.754-0.458-0.995-1.444-0.538-2.198c2.981-4.914,4.883-10.616,5.502-16.491l0.163-1.546h-1.555H34c-0.882,0-1.6-0.718-1.6-1.6 s0.718-1.6,1.6-1.6h4.173h1.477l-0.079-1.475c-0.348-6.481-2.292-12.447-5.622-17.254c-0.502-0.725-0.321-1.724,0.403-2.226 c0.27-0.187,0.584-0.286,0.909-0.285c0.526,0,1.019,0.257,1.318,0.689c3.696,5.333,5.825,11.979,6.158,19.216l0.061,1.335h1.337 h13.16h1.337l0.061-1.335c0.333-7.238,2.463-13.883,6.159-19.217C65.152,27.466,65.644,27.208,66.17,27.209L66.17,27.209 M66.17,25.809c-0.951,0-1.886,0.451-2.468,1.292c-3.952,5.703-6.072,12.695-6.406,19.949h-13.16 c-0.334-7.254-2.455-14.247-6.406-19.949c-0.582-0.84-1.517-1.292-2.468-1.292c-0.589,0-1.185,0.173-1.706,0.535 c-1.361,0.944-1.7,2.813-0.757,4.174c3.269,4.718,5.052,10.499,5.375,16.532H34c-1.657,0-3,1.343-3,3s1.343,3,3,3h4.006 c-0.58,5.512-2.336,11.014-5.307,15.911c-0.859,1.416-0.408,3.261,1.008,4.121c0.487,0.295,1.023,0.436,1.554,0.436 c1.014,0,2.003-0.515,2.567-1.444c3.538-5.832,5.58-12.422,6.174-19.023H57.43c0.594,6.602,2.635,13.192,6.174,19.023 c0.564,0.93,1.554,1.444,2.567,1.444c0.53,0,1.067-0.141,1.554-0.436c1.416-0.86,1.867-2.705,1.008-4.121 c-2.971-4.897-4.726-10.399-5.307-15.911H67c1.657,0,3-1.343,3-3s-1.343-3-3-3h-3.741c0.324-6.033,2.106-11.814,5.375-16.532 c0.943-1.362,0.604-3.23-0.757-4.174C67.355,25.982,66.76,25.809,66.17,25.809L66.17,25.809z"/></g><g><path fill="#472b29" d="M46.86,45c-0.257,0-0.476-0.198-0.497-0.458c-0.252-3.025-0.851-6.063-1.78-9.029 c-0.18-0.575-0.367-1.131-0.559-1.667c-0.093-0.26,0.043-0.546,0.303-0.639c0.262-0.093,0.546,0.043,0.639,0.303 c0.195,0.548,0.387,1.116,0.571,1.704c0.952,3.037,1.565,6.147,1.822,9.245c0.023,0.275-0.182,0.517-0.457,0.54 C46.889,45,46.875,45,46.86,45z"/></g><g><path fill="#472b29" d="M43.479,31.6c-0.193,0-0.378-0.113-0.459-0.302c-0.623-1.445-1.314-2.835-2.057-4.132 c-0.138-0.24-0.055-0.545,0.186-0.682c0.235-0.136,0.544-0.055,0.682,0.186c0.762,1.33,1.471,2.754,2.107,4.233 c0.109,0.253-0.008,0.548-0.261,0.657C43.612,31.586,43.545,31.6,43.479,31.6z"/></g><g><path fill="#472b29" d="M46.048,60.734c-0.034,0-0.067-0.003-0.102-0.01c-0.271-0.055-0.444-0.32-0.39-0.59 c0.245-1.195,0.431-2.434,0.552-3.682C46.134,56.196,46.349,56,46.606,56h7c0.276,0,0.5,0.224,0.5,0.5s-0.224,0.5-0.5,0.5h-6.549 c-0.124,1.13-0.299,2.25-0.521,3.335C46.488,60.572,46.28,60.734,46.048,60.734z"/></g><g><path fill="#472b29" d="M41.606,72c-0.087,0-0.174-0.022-0.254-0.069c-0.237-0.14-0.317-0.447-0.177-0.685 c1.073-1.823,2.627-4.68,3.719-8.434c0.078-0.265,0.351-0.419,0.62-0.34c0.266,0.077,0.418,0.354,0.341,0.62 c-1.124,3.862-2.718,6.793-3.818,8.662C41.944,71.912,41.777,72,41.606,72z"/></g></svg>