<svg xmlns="http://www.w3.org/2000/svg"  viewBox="0 0 100 100"  ><path fill="#ee3e54" d="M13,27c-1.105,0-2,0.895-2,2s0.895,2,2,2s2-0.895,2-2S14.105,27,13,27z"/><path fill="#f1bc19" d="M77,12c-0.551,0-1,0.449-1,1s0.449,1,1,1s1-0.449,1-1S77.551,12,77,12z"/><path fill="#fce0a2" d="M50,13c-20.434,0-37,16.566-37,37s16.566,37,37,37s37-16.566,37-37S70.434,13,50,13z"/><path fill="#f1bc19" d="M83,11c-2.211,0-4,1.789-4,4s1.789,4,4,4s4-1.789,4-4S85.211,11,83,11z"/><path fill="#ee3e54" d="M87,22c-1.105,0-2,0.895-2,2s0.895,2,2,2s2-0.895,2-2S88.105,22,87,22z"/><path fill="#fbcd59" d="M81,74c-1.105,0-2,0.895-2,2s0.895,2,2,2s2-0.895,2-2S82.105,74,81,74z M15,59 c-2.211,0-4,1.789-4,4s1.789,4,4,4s4-1.789,4-4S17.211,59,15,59z"/><path fill="#ee3e54" d="M25,85c-1.105,0-2,0.895-2,2s0.895,2,2,2s2-0.895,2-2S26.105,85,25,85z"/><path fill="#fff" d="M18.5,48c-1.379,0-2.5,1.121-2.5,2.5s1.121,2.5,2.5,2.5s2.5-1.121,2.5-2.5S19.879,48,18.5,48z"/><path fill="#f1bc19" d="M21,66c-0.551,0-1,0.449-1,1s0.449,1,1,1s1-0.449,1-1S21.551,66,21,66z"/><path fill="#fff" d="M80,33c-0.551,0-1,0.449-1,1s0.449,1,1,1s1-0.449,1-1S80.551,33,80,33z"/><g><path fill="#00a5a5" d="M33,68.3c-0.614,0-1.191-0.239-1.626-0.674S30.7,66.614,30.7,66s0.239-1.192,0.674-1.626 l8.412-8.412l-6.771-6.77c-0.897-0.897-0.897-2.356,0-3.253c0.435-0.434,1.013-0.673,1.626-0.673 c0.614,0,1.191,0.239,1.626,0.673l6.771,6.771L62.448,33.3H48c-1.269,0-2.3-1.032-2.3-2.3s1.031-2.3,2.3-2.3h20 c1.269,0,2.3,1.032,2.3,2.3v20c0,1.268-1.031,2.3-2.3,2.3s-2.3-1.032-2.3-2.3V36.552l-19.41,19.41l7.042,7.041 c0.435,0.435,0.674,1.012,0.674,1.626c0,0.615-0.239,1.192-0.674,1.627s-1.012,0.674-1.626,0.674s-1.191-0.239-1.626-0.674 l-7.042-7.042l-8.412,8.412C34.191,68.061,33.614,68.3,33,68.3z"/><path fill="#472b29" d="M68,29.4c0.882,0,1.6,0.718,1.6,1.6v20c0,0.882-0.718,1.6-1.6,1.6s-1.6-0.718-1.6-1.6V38.242 v-3.38l-2.39,2.39l-17.719,17.72l-0.99,0.99l0.99,0.99l6.547,6.547c0.302,0.302,0.469,0.704,0.469,1.131 s-0.167,0.829-0.469,1.132c-0.302,0.302-0.704,0.469-1.131,0.469s-0.829-0.167-1.131-0.469l-6.547-6.547l-0.99-0.99l-0.99,0.99 l-7.917,7.917C33.829,67.434,33.427,67.6,33,67.6s-0.829-0.167-1.131-0.469C31.566,66.829,31.4,66.427,31.4,66 s0.166-0.829,0.469-1.131l7.917-7.917l0.99-0.99l-0.99-0.99l-6.275-6.275c-0.624-0.624-0.624-1.64,0-2.263 c0.303-0.302,0.705-0.469,1.132-0.469c0.427,0,0.829,0.167,1.131,0.468l6.276,6.276l0.99,0.99l0.99-0.99L61.747,34.99l2.39-2.39 h-3.38H48c-0.882,0-1.6-0.718-1.6-1.6s0.718-1.6,1.6-1.6H68 M68,28H48c-1.657,0-3,1.343-3,3s1.343,3,3,3h12.757L43.038,51.719 l-6.276-6.276c-0.586-0.586-1.353-0.878-2.121-0.878c-0.768,0-1.536,0.293-2.122,0.878c-1.172,1.172-1.172,3.071,0,4.243 l6.275,6.275l-7.917,7.917c-1.172,1.171-1.172,3.071,0,4.242C31.465,68.707,32.232,69,33,69s1.535-0.293,2.121-0.879l7.917-7.917 l6.547,6.547c0.586,0.586,1.354,0.879,2.121,0.879s1.535-0.293,2.121-0.879c1.172-1.172,1.172-3.071,0-4.243l-6.547-6.546 L65,38.242V51c0,1.657,1.343,3,3,3s3-1.343,3-3V31C71,29.343,69.657,28,68,28L68,28z"/><path fill="#472b29" d="M55.5,60c-0.128,0-0.256-0.049-0.354-0.146l-4-4c-0.195-0.195-0.195-0.512,0-0.707l2.659-2.66 c0.195-0.195,0.512-0.195,0.707,0c0.195,0.195,0.195,0.512,0,0.707L52.207,55.5l3.646,3.646c0.195,0.195,0.195,0.512,0,0.707 C55.756,59.951,55.628,60,55.5,60z"/><path fill="#472b29" d="M56.266,51.234c-0.128,0-0.256-0.049-0.354-0.146c-0.195-0.195-0.195-0.512,0-0.707l6.234-6.234 c0.195-0.195,0.512-0.195,0.707,0s0.195,0.512,0,0.707l-6.234,6.234C56.521,51.185,56.394,51.234,56.266,51.234z"/><path fill="#472b29" d="M29.947,61.681c-0.128,0-0.256-0.049-0.354-0.146c-0.195-0.195-0.195-0.512,0-0.707l2.074-2.074 c0.195-0.195,0.512-0.195,0.707,0s0.195,0.512,0,0.707l-2.074,2.074C30.203,61.632,30.075,61.681,29.947,61.681z"/><g><path fill="#472b29" d="M33.617,58.011c-0.128,0-0.256-0.049-0.354-0.146c-0.195-0.195-0.195-0.512,0-0.707l0.977-0.976 l-3.646-3.646c-0.195-0.195-0.195-0.512,0-0.707s0.512-0.195,0.707,0l4,4c0.094,0.094,0.146,0.221,0.146,0.354 s-0.053,0.26-0.146,0.354l-1.33,1.33C33.873,57.962,33.745,58.011,33.617,58.011z"/></g></g></svg>