<svg xmlns="http://www.w3.org/2000/svg"  viewBox="0 0 100 100"  ><circle cx="78" cy="14" r="1" fill="#f1bc19"/><circle cx="50" cy="50" r="38" fill="#f9dbd2"/><circle cx="84" cy="16" r="4" fill="#f1bc19"/><circle cx="14" cy="26" r="2" fill="#ee3e54"/><circle cx="78" cy="77" r="2" fill="#fbcd59"/><circle cx="17" cy="78" r="4" fill="#fbcd59"/><circle cx="24" cy="83" r="2" fill="#ee3e54"/><circle cx="46.483" cy="82.517" r="2.483" fill="#fff"/><circle cx="16" cy="48" r="1" fill="#fff"/><circle cx="86" cy="31" r="1" fill="#f1bc19"/><circle cx="83" cy="53.125" r="2" fill="#fff"/><g><path fill="#00a5a5" d="M68.3,73.438c-0.671,0-1.308-0.292-1.745-0.8c-0.566-0.659-0.706-1.575-0.364-2.389l0.383-0.912 l-0.987-0.058c-2.053-0.121-3.979-0.983-5.426-2.428c-1.587-1.584-2.46-3.692-2.46-5.934V36.489c0-2.118-2.218-3.7-4.2-3.7 s-4.2,1.582-4.2,3.7V67c0,1.268-1.031,2.3-2.3,2.3s-2.3-1.032-2.3-2.3V36.988c0-2.084-2.304-3.7-4.285-3.7 c-1.942,0-4.115,1.582-4.115,3.7V67c0,1.268-1.031,2.3-2.3,2.3s-2.3-1.032-2.3-2.3V38.052c0-2.162-1.76-3.944-3.498-4.587 c-1.189-0.44-1.799-1.766-1.359-2.956c0.333-0.898,1.201-1.502,2.16-1.502c0.271,0,0.538,0.048,0.795,0.143 c1.221,0.451,2.34,1.138,3.326,2.04l0.498,0.455l0.473-0.48c1.484-1.505,3.965-2.478,6.32-2.478c2.099,0,4.511,0.781,5.864,1.901 l0.484,0.4l0.45-0.438c1.45-1.413,3.977-2.362,6.286-2.362c4.688,0,8.8,3.879,8.8,8.3v24.429c0,1.012,0.395,1.964,1.111,2.679 c0.496,0.495,1.125,0.841,1.818,1.002l1.095,0.253l-0.256-1.095c-0.171-0.729,0.007-1.468,0.487-2.026 c0.438-0.508,1.074-0.799,1.745-0.799c0.55,0,1.082,0.198,1.498,0.556l4.594,3.953c0.509,0.437,0.8,1.072,0.8,1.743 s-0.291,1.306-0.8,1.744l-4.594,3.953C69.383,73.24,68.85,73.438,68.3,73.438z"/><path fill="#472b29" d="M53.5,28.889c4.315,0,8.1,3.551,8.1,7.6v24.429c0,1.2,0.467,2.327,1.316,3.174 c0.588,0.587,1.333,0.998,2.155,1.188l2.192,0.507l-0.513-2.19c-0.119-0.509,0.003-1.022,0.335-1.408 c0.305-0.354,0.748-0.557,1.216-0.557c0.382,0,0.752,0.137,1.042,0.387l4.594,3.954c0.353,0.304,0.556,0.746,0.556,1.212 c0,0.467-0.203,0.909-0.556,1.213l-4.594,3.953c-0.372,0.32-0.772,0.387-1.043,0.387c-0.467,0-0.91-0.203-1.214-0.556 c-0.393-0.457-0.489-1.093-0.25-1.662l0.766-1.824l-1.975-0.116c-1.881-0.11-3.647-0.9-4.972-2.225 c-1.454-1.452-2.254-3.383-2.254-5.438V36.489c0-2.518-2.587-4.4-4.9-4.4s-4.9,1.882-4.9,4.4v0.499V66v1 c0,0.882-0.718,1.6-1.6,1.6s-1.6-0.718-1.6-1.6v-1V36.988c0-2.518-2.632-4.4-4.985-4.4c-2.277,0-4.815,1.807-4.815,4.4v1.063V67 c0,0.882-0.718,1.6-1.6,1.6s-1.6-0.718-1.6-1.6V38.052c0-2.481-1.99-4.516-3.955-5.244c-0.828-0.306-1.252-1.229-0.946-2.056 c0.232-0.625,0.836-1.045,1.503-1.045c0.188,0,0.374,0.034,0.553,0.1c1.136,0.42,2.177,1.059,3.095,1.9l0.995,0.911l0.947-0.96 c1.338-1.357,3.678-2.269,5.822-2.269c1.951,0,4.179,0.716,5.419,1.74l0.969,0.801l0.9-0.877 C49.03,29.758,51.36,28.889,53.5,28.889 M53.5,27.489c-2.439,0-5.152,0.979-6.775,2.56c-1.557-1.287-4.137-2.061-6.311-2.061 c-2.504,0-5.186,1.03-6.819,2.686c-1.017-0.931-2.219-1.686-3.555-2.18c-0.342-0.127-0.693-0.187-1.039-0.187 c-1.218,0-2.367,0.748-2.816,1.959c-0.575,1.554,0.219,3.28,1.772,3.855C29.433,34.667,31,36.229,31,38.052V67 c0,1.657,1.343,3,3,3s3-1.343,3-3V38.052v-1.063c0-1.654,1.76-3,3.415-3s3.585,1.346,3.585,3V66v1c0,1.657,1.343,3,3,3 s3-1.343,3-3v-1V36.988v-0.499c0-1.654,1.846-3,3.5-3s3.5,1.346,3.5,3v24.429c0,2.429,0.946,4.712,2.665,6.429 c1.587,1.585,3.658,2.501,5.88,2.631c-0.427,1.016-0.287,2.225,0.48,3.117c0.594,0.689,1.433,1.043,2.275,1.043 c0.693,0,1.39-0.238,1.956-0.726l4.594-3.953c0.662-0.57,1.043-1.4,1.043-2.274c0-0.874-0.381-1.704-1.043-2.273l-4.594-3.953 c-0.566-0.487-1.262-0.726-1.955-0.726c-0.843,0-1.682,0.354-2.276,1.043c-0.65,0.755-0.849,1.74-0.638,2.642 c-0.555-0.128-1.068-0.402-1.481-0.815C63.321,62.519,63,61.743,63,60.918V36.489C63,31.526,58.463,27.489,53.5,27.489 L53.5,27.489z"/><path fill="#472b29" d="M28.5,44.83c-0.276,0-0.5-0.224-0.5-0.5v-4.255c-0.001-0.088-0.056-2.233-2.658-3.1 c-0.262-0.087-0.403-0.371-0.316-0.633c0.088-0.262,0.371-0.403,0.633-0.316C28.962,37.127,29,39.955,29,40.074v4.255 C29,44.606,28.776,44.83,28.5,44.83z"/><path fill="#472b29" d="M28.5,55.117c-0.276,0-0.5-0.224-0.5-0.5v-7.319c0-0.276,0.224-0.5,0.5-0.5s0.5,0.224,0.5,0.5 v7.319C29,54.893,28.776,55.117,28.5,55.117z"/><path fill="#472b29" d="M28.5,67c-0.276,0-0.5-0.224-0.5-0.5v-8.532c0-0.276,0.224-0.5,0.5-0.5s0.5,0.224,0.5,0.5V66.5 C29,66.776,28.776,67,28.5,67z"/><path fill="#472b29" d="M65.5,47.606c-0.276,0-0.5-0.224-0.5-0.5V35.718c0-2.007-0.976-5.738-3.665-7.789 c-0.219-0.167-0.262-0.481-0.094-0.701c0.169-0.22,0.481-0.261,0.701-0.094C64.919,29.406,66,33.512,66,35.718v11.388 C66,47.383,65.776,47.606,65.5,47.606z"/><g><path fill="#472b29" d="M65.5,59c-0.276,0-0.5-0.224-0.5-0.5v-7.468c0-0.276,0.224-0.5,0.5-0.5s0.5,0.224,0.5,0.5V58.5 C66,58.776,65.776,59,65.5,59z"/></g></g></svg>