<svg xmlns="http://www.w3.org/2000/svg"  viewBox="0 0 100 100" ><circle cx="13" cy="29" r="2" fill="#78a0cf"/><circle cx="77" cy="13" r="1" fill="#f1bc19"/><circle cx="50" cy="50" r="37" fill="#cee1f4"/><circle cx="83" cy="15" r="4" fill="#f1bc19"/><circle cx="87" cy="24" r="2" fill="#78a0cf"/><circle cx="81" cy="76" r="2" fill="#fbcd59"/><circle cx="15" cy="63" r="4" fill="#fbcd59"/><circle cx="25" cy="87" r="2" fill="#78a0cf"/><circle cx="20.5" cy="41.5" r="2.5" fill="#fff"/><circle cx="21" cy="67" r="1" fill="#f1bc19"/><circle cx="80" cy="34" r="1" fill="#fff"/><g><path fill="#00a5a5" d="M49.5,74.3c-9.815,0-17.8-7.985-17.8-17.8c0-6.14,3.127-11.772,8.365-15.065l0.811-0.51 l-0.732-0.618c-1.296-1.093-2.315-2.351-3.214-3.46C34.788,34.207,33.243,32.3,29,32.3c-1.268,0-2.3-1.032-2.3-2.3 s1.032-2.3,2.3-2.3c6.436,0,9.127,3.321,11.502,6.251C42.653,36.604,44.351,38.7,49,38.7c0.042,0.008,0.086,0.013,0.13,0.016 c0.114,0,0.177-0.004,0.241-0.009L49.5,38.7l0.375,0.018l0.127-0.016c4.647-0.002,6.345-2.097,8.495-4.75 C60.873,31.021,63.564,27.7,70,27.7c1.268,0,2.3,1.032,2.3,2.3s-1.032,2.3-2.3,2.3c-4.243,0-5.788,1.907-7.928,4.546 c-0.9,1.111-1.919,2.368-3.216,3.461l-0.732,0.618l0.811,0.51C64.173,44.728,67.3,50.36,67.3,56.5 C67.3,66.315,59.315,74.3,49.5,74.3z M49.5,43.3c-7.278,0-13.2,5.921-13.2,13.2s5.922,13.2,13.2,13.2s13.2-5.921,13.2-13.2 S56.778,43.3,49.5,43.3z"/><path fill="#472b29" d="M70,28.4c0.882,0,1.6,0.718,1.6,1.6s-0.718,1.6-1.6,1.6c-4.576,0-6.295,2.12-8.473,4.807 c-0.879,1.084-1.875,2.314-3.122,3.365l-1.465,1.235l1.623,1.02C63.595,45.191,66.6,50.602,66.6,56.5 c0,9.429-7.671,17.1-17.1,17.1s-17.1-7.671-17.1-17.1c0-5.898,3.005-11.309,8.037-14.473l1.623-1.02l-1.465-1.235 c-1.247-1.051-2.243-2.281-3.123-3.367C35.295,33.72,33.576,31.6,29,31.6c-0.882,0-1.6-0.718-1.6-1.6s0.718-1.6,1.6-1.6 c6.102,0,8.682,3.184,10.959,5.992c2.168,2.676,4.042,4.988,8.977,5.008c0.053,0.007,0.105,0.012,0.159,0.015l0.048,0.002 l0.049,0c0.077-0.001,0.153-0.006,0.229-0.012l0.078-0.005l0.08,0.005c0.076,0.005,0.152,0.01,0.229,0.012l0.049,0l0.048-0.002 c0.052-0.002,0.103-0.007,0.158-0.015c4.935-0.02,6.809-2.332,8.977-5.008C61.318,31.583,63.898,28.4,70,28.4 M49.5,70.4 c7.664,0,13.9-6.235,13.9-13.9s-6.236-13.9-13.9-13.9s-13.9,6.235-13.9,13.9S41.836,70.4,49.5,70.4 M70,27 c-6.77,0-9.695,3.61-12.046,6.511C55.841,36.117,54.315,38,50,38c-0.057,0-0.111,0.014-0.167,0.017 C49.721,38.015,49.612,38,49.5,38s-0.221,0.015-0.333,0.017C49.111,38.014,49.057,38,49,38c-4.315,0-5.841-1.883-7.954-4.489 C38.695,30.61,35.77,27,29,27c-1.657,0-3,1.343-3,3s1.343,3,3,3c3.91,0,5.292,1.706,7.385,4.288 c0.942,1.162,1.977,2.433,3.307,3.554C34.481,44.118,31,49.903,31,56.5C31,66.701,39.299,75,49.5,75S68,66.701,68,56.5 c0-6.597-3.481-12.382-8.692-15.658c1.33-1.122,2.365-2.392,3.307-3.554C64.708,34.706,66.09,33,70,33c1.657,0,3-1.343,3-3 S71.657,27,70,27L70,27z M49.5,69C42.607,69,37,63.393,37,56.5S42.607,44,49.5,44S62,49.607,62,56.5S56.393,69,49.5,69L49.5,69z"/><path fill="#472b29" d="M57.701,62.723c-0.099,0-0.199-0.029-0.286-0.09c-0.226-0.158-0.281-0.47-0.123-0.696 C58.409,60.338,59,58.458,59,56.5c0-2.442-0.925-4.763-2.604-6.534c-0.19-0.2-0.182-0.517,0.019-0.707s0.518-0.182,0.707,0.019 C58.978,51.236,60,53.801,60,56.5c0,2.164-0.653,4.242-1.889,6.01C58.014,62.649,57.859,62.723,57.701,62.723z"/><path fill="#472b29" d="M54.855,48.553c-0.092,0-0.185-0.025-0.268-0.078C53.068,47.51,51.309,47,49.5,47 c-0.276,0-0.5-0.224-0.5-0.5s0.224-0.5,0.5-0.5c1.999,0,3.943,0.564,5.624,1.631c0.233,0.148,0.302,0.457,0.154,0.69 C55.182,48.471,55.021,48.553,54.855,48.553z"/><path fill="#472b29" d="M40.265,60.842c-0.196,0-0.381-0.116-0.461-0.308c-0.169-0.405-0.313-0.824-0.429-1.245 C39.126,58.386,39,57.448,39,56.5c0-1.551,0.331-3.045,0.982-4.44c0.117-0.25,0.414-0.358,0.665-0.241 c0.25,0.117,0.358,0.414,0.242,0.665C40.299,53.745,40,55.096,40,56.5c0,0.858,0.114,1.707,0.339,2.524 c0.104,0.381,0.235,0.759,0.387,1.125c0.106,0.255-0.014,0.548-0.269,0.654C40.394,60.83,40.329,60.842,40.265,60.842z"/><path fill="#472b29" d="M42.397,64.039c-0.129,0-0.257-0.049-0.355-0.148c-0.659-0.665-1.227-1.414-1.686-2.227 c-0.206-0.363-0.392-0.743-0.553-1.13c-0.106-0.255,0.014-0.548,0.269-0.654c0.255-0.105,0.548,0.014,0.654,0.27 c0.146,0.35,0.314,0.693,0.5,1.022c0.416,0.736,0.93,1.414,1.526,2.015c0.194,0.196,0.193,0.513-0.003,0.707 C42.651,63.99,42.524,64.039,42.397,64.039z"/><g><path fill="#472b29" d="M49.5,67c-1.75,0-3.483-0.439-5.011-1.271c-0.243-0.132-0.333-0.436-0.201-0.678 c0.132-0.242,0.436-0.332,0.678-0.2C46.349,65.603,47.917,66,49.5,66c0.276,0,0.5,0.224,0.5,0.5S49.776,67,49.5,67z"/></g></g></svg>