<svg xmlns="http://www.w3.org/2000/svg"  viewBox="0 0 100 100" ><circle cx="77" cy="13" r="1" fill="#f1bc19"/><circle cx="50" cy="50" r="37" fill="#e6edb7"/><circle cx="83" cy="15" r="4" fill="#f1bc19"/><circle cx="87" cy="24" r="2" fill="#9f8066"/><circle cx="81" cy="76" r="2" fill="#fbcd59"/><path fill="#fbcd59" d="M18,64c0,2.209-0.791,4-3,4s-4-1.791-4-4c0-2.209,1.791-4,4-4S18,61.791,18,64z"/><circle cx="25" cy="87" r="2" fill="#9f8066"/><circle cx="20.5" cy="52.5" r="2.5" fill="#fff"/><circle cx="79.5" cy="40.5" r="1.5" fill="#fff"/><g><path fill="#00a5a5" d="M67.521,75.462c-0.126,0-0.254-0.011-0.382-0.032c-3.639-0.605-6.312-3.012-7.152-6.439 l-0.237-0.969l-0.831,0.554c-0.417,0.278-0.843,0.553-1.284,0.824c-0.363,0.224-0.779,0.342-1.202,0.342 c-0.807,0-1.539-0.41-1.961-1.095c-0.322-0.523-0.422-1.141-0.279-1.738c0.143-0.598,0.509-1.104,1.032-1.426 c1.51-0.93,2.896-1.944,4.233-3.101l0.242-0.209V43.76l-0.015-0.07c-0.033-0.161-0.05-0.321-0.05-0.475 c0-0.285,0.024-0.564,0.059-0.84l0.006-5.521c0-2.316-1.885-4.2-4.2-4.2s-4.2,1.884-4.2,4.2V67c0,1.268-1.031,2.3-2.3,2.3 s-2.3-1.032-2.3-2.3V36.854c0-2.365-1.885-4.249-4.2-4.249s-4.2,1.884-4.2,4.2V67c0,1.268-1.031,2.3-2.3,2.3s-2.3-1.032-2.3-2.3 V37.779c0-2.461-2.063-4.552-4.004-5.27c-1.189-0.44-1.8-1.766-1.359-2.955c0.333-0.899,1.201-1.502,2.16-1.502 c0.271,0,0.538,0.048,0.794,0.143c1.44,0.533,2.79,1.397,3.904,2.501l0.502,0.498l0.493-0.508 c1.676-1.729,3.917-2.681,6.31-2.681c2.251,0,4.398,0.861,6.046,2.423l0.478,0.454l0.481-0.45 c1.642-1.533,3.771-2.377,5.995-2.377c4.559,0,8.324,3.421,8.757,7.958l0.073,0.765l0.755-0.144 c0.428-0.082,0.85-0.123,1.256-0.123c3.696,0,6.704,3.008,6.704,6.705c0,4.516-1.109,13.221-8.544,20.771L64.3,64.19v2.377 c0,2.438,1.243,3.934,3.596,4.325c0.606,0.101,1.137,0.432,1.493,0.931c0.357,0.5,0.498,1.109,0.397,1.715 C69.601,74.654,68.648,75.462,67.521,75.462z M66.341,41.11c-0.92,0-1.747,0.62-2.012,1.507L64.3,42.715v14.516l1.32-2.523 c2.335-4.462,2.825-8.713,2.825-11.493C68.445,42.054,67.501,41.11,66.341,41.11z"/><path fill="#472b29" d="M42.5,28.704c2.071,0,4.047,0.792,5.564,2.231l0.956,0.907l0.963-0.9 c1.511-1.412,3.471-2.189,5.517-2.189c4.197,0,7.662,3.149,8.06,7.324l0.146,1.531l1.51-0.289c0.383-0.073,0.762-0.11,1.124-0.11 c3.311,0,6.004,2.694,6.004,6.005c0,4.41-1.084,12.908-8.343,20.28L63.6,63.903v0.574v2.09c0,2.746,1.524,4.574,4.181,5.016 c0.421,0.07,0.79,0.3,1.038,0.648s0.347,0.771,0.276,1.193c-0.129,0.775-0.791,1.338-1.574,1.338 c-0.088,0-0.177-0.008-0.267-0.022c-3.403-0.566-5.804-2.723-6.587-5.915l-0.476-1.94l-1.661,1.11 c-0.409,0.273-0.829,0.543-1.262,0.81c-0.253,0.156-0.542,0.238-0.835,0.238c-0.561,0-1.072-0.285-1.365-0.763 c-0.224-0.364-0.293-0.793-0.194-1.209c0.099-0.416,0.354-0.768,0.718-0.992c1.542-0.949,2.957-1.985,4.324-3.167l0.484-0.418 v-0.641V43.831v-0.145l-0.029-0.141c-0.023-0.111-0.035-0.223-0.035-0.331c0-0.223,0.017-0.462,0.053-0.752l0.011-0.087v-0.088 v-5.435c0-2.702-2.198-4.9-4.9-4.9s-4.9,2.198-4.9,4.9V67c0,0.882-0.718,1.6-1.6,1.6s-1.6-0.718-1.6-1.6V36.804 c0-2.702-2.198-4.9-4.9-4.9s-4.9,2.198-4.9,4.9v0.975V67c0,0.882-0.718,1.6-1.6,1.6s-1.6-0.718-1.6-1.6V37.779 c0-2.808-2.244-5.106-4.461-5.927c-0.828-0.306-1.252-1.229-0.946-2.055c0.232-0.625,0.836-1.046,1.504-1.046 c0.188,0,0.373,0.034,0.552,0.1c1.345,0.498,2.609,1.308,3.653,2.342l1.005,0.995l0.985-1.016 C38.236,29.581,40.299,28.704,42.5,28.704 M63.6,60.08l2.641-5.047c2.401-4.589,2.905-8.959,2.905-11.817 c0-1.547-1.258-2.805-2.804-2.805c-1.227,0-2.33,0.825-2.682,2.007L63.6,42.612v0.205v11.566V60.08 M42.5,27.304 c-2.671,0-5.085,1.112-6.812,2.894c-1.159-1.147-2.567-2.073-4.152-2.66c-0.342-0.127-0.692-0.187-1.038-0.187 c-1.218,0-2.368,0.748-2.817,1.959c-0.575,1.554,0.219,3.279,1.772,3.854c1.72,0.636,3.547,2.47,3.547,4.614V67 c0,1.657,1.343,3,3,3s3-1.343,3-3V37.779v-0.975c0-1.93,1.57-3.5,3.5-3.5s3.5,1.57,3.5,3.5v0.049V67c0,1.657,1.343,3,3,3 s3-1.343,3-3V36.854c0-1.93,1.57-3.5,3.5-3.5s3.5,1.57,3.5,3.5v5.435c-0.038,0.304-0.064,0.612-0.064,0.927 c0,0.211,0.023,0.417,0.064,0.616v18.021c-1.215,1.05-2.577,2.071-4.143,3.034c-1.411,0.868-1.851,2.716-0.982,4.127 c0.566,0.921,1.55,1.429,2.558,1.429c0.536,0,1.079-0.144,1.569-0.446c0.448-0.276,0.882-0.556,1.305-0.838 c0.899,3.667,3.73,6.299,7.717,6.962c0.167,0.028,0.333,0.042,0.497,0.042c1.439,0,2.711-1.041,2.955-2.508 c0.272-1.635-0.832-3.18-2.466-3.452C66.013,69.87,65,68.646,65,66.567v-2.09c7.442-7.558,8.745-16.18,8.745-21.262 c0-4.083-3.321-7.405-7.404-7.405c-0.474,0-0.937,0.049-1.387,0.135c-0.459-4.813-4.522-8.591-9.454-8.591 c-2.502,0-4.774,0.979-6.473,2.566C47.323,28.303,45.028,27.304,42.5,27.304L42.5,27.304z M65,54.383V42.817 c0.173-0.58,0.706-1.007,1.341-1.007c0.774,0,1.404,0.631,1.404,1.405C67.745,45.997,67.238,50.106,65,54.383L65,54.383z"/><path fill="#472b29" d="M30.5,43.83c-0.276,0-0.5-0.224-0.5-0.5v-4.255c-0.001-0.088-0.056-2.233-2.658-3.1 c-0.262-0.087-0.403-0.371-0.316-0.633c0.088-0.262,0.374-0.403,0.633-0.316C30.962,36.127,31,38.955,31,39.074v4.255 C31,43.606,30.776,43.83,30.5,43.83z"/><path fill="#472b29" d="M30.5,54.117c-0.276,0-0.5-0.224-0.5-0.5v-7.319c0-0.276,0.224-0.5,0.5-0.5s0.5,0.224,0.5,0.5 v7.319C31,53.893,30.776,54.117,30.5,54.117z"/><path fill="#472b29" d="M30.5,66c-0.276,0-0.5-0.224-0.5-0.5v-8.532c0-0.276,0.224-0.5,0.5-0.5s0.5,0.224,0.5,0.5V65.5 C31,65.776,30.776,66,30.5,66z"/><path fill="#472b29" d="M75.372,52.866c-0.046,0-0.093-0.007-0.14-0.02c-0.266-0.077-0.418-0.355-0.341-0.62 C75.627,49.704,76,47.104,76,44.5c0-0.276,0.224-0.5,0.5-0.5s0.5,0.224,0.5,0.5c0,2.699-0.386,5.393-1.147,8.006 C75.788,52.724,75.589,52.866,75.372,52.866z"/><path fill="#472b29" d="M71.828,60.648c-0.092,0-0.185-0.025-0.268-0.078c-0.233-0.148-0.303-0.457-0.154-0.69 c0.885-1.394,1.657-2.856,2.297-4.347c0.109-0.255,0.403-0.371,0.657-0.262c0.254,0.109,0.371,0.403,0.263,0.656 c-0.661,1.54-1.459,3.051-2.373,4.49C72.155,60.566,71.993,60.648,71.828,60.648z"/><g><path fill="#472b29" d="M67.5,66c-0.138,0-0.274-0.057-0.373-0.168c-0.184-0.206-0.165-0.522,0.041-0.706 c0.011-0.01,1.145-1.026,2.577-2.879c0.171-0.219,0.485-0.258,0.701-0.09c0.219,0.169,0.259,0.483,0.09,0.701 c-1.495,1.933-2.655,2.971-2.704,3.015C67.737,65.958,67.618,66,67.5,66z"/></g></g></svg>