<svg xmlns="http://www.w3.org/2000/svg"  viewBox="0 0 100 100" width="100px" height="100px"><circle cx="78" cy="14" r="1" fill="#f1bc19"/><circle cx="50" cy="50" r="38" fill="#f9dbd2"/><circle cx="84" cy="16" r="4" fill="#f1bc19"/><circle cx="14" cy="26" r="2" fill="#ee3e54"/><circle cx="78" cy="77" r="2" fill="#fbcd59"/><circle cx="17" cy="78" r="4" fill="#fbcd59"/><circle cx="24" cy="83" r="2" fill="#ee3e54"/><circle cx="66.483" cy="78.517" r="2.483" fill="#fff"/><circle cx="16" cy="48" r="1" fill="#fff"/><circle cx="86" cy="31" r="1" fill="#f1bc19"/><circle cx="80" cy="66" r="2" fill="#fff"/><g><path fill="#77cbd2" d="M71.335,41.009c0.605-1.187,1.335-3.127,1.67-6.009c1.046-8.995-5-9-7-6 c-0.703,1.055-1.202,1.78-1.558,2.284C57,27,44,27,35.557,31.282C35.201,30.778,34.702,30.054,34,29c-2-3-8.046-2.995-7,6 c0.335,2.878,1.062,4.817,1.667,6.004c-3.111,7.26-5.379,14.398-6.44,21.363c-0.15,0.982,0.343,1.963,1.217,2.436 C31.86,69.354,40.682,71.903,50,72c9.318-0.097,18.14-2.646,26.556-7.197c0.874-0.473,1.366-1.454,1.217-2.436 C76.712,55.404,74.444,48.267,71.335,41.009z"/><path fill="#00a5a5" d="M36.375,32.375C36.375,32.375,36,32,34,29s-8.046-2.995-7,6c0.625,5.375,2.625,7.5,2.625,7.5 C31.189,38.143,33.375,34.75,36.375,32.375z"/><path fill="#00a5a5" d="M63.629,32.375c0,0,0.375-0.375,2.375-3.375s8.046-2.995,7,6c-0.625,5.375-2.625,7.5-2.625,7.5 C68.815,38.143,66.629,34.75,63.629,32.375z"/><path fill="#00a5a5" d="M25.384,52.814c-0.447,1.524-0.837,3.041-1.184,4.551C27.467,58.998,30.734,59,34,59 C29.684,57.15,26.894,54.543,25.384,52.814z"/><path fill="#00a5a5" d="M25.774,51.543C29.516,53.999,33.258,54,37,54c-5.49-2.353-8.51-5.926-9.562-7.362 C26.833,48.28,26.278,49.916,25.774,51.543z"/><path fill="#c5def0" d="M22.995,58.252c-0.324,1.494-0.6,2.981-0.819,4.459c-0.115,0.775,0.275,1.549,0.962,1.925 c7.168,3.922,14.632,6.385,22.445,7.125c1.219,0.108,2.234,0.167,2.987,0.199c0.476,0.018,0.951,0.035,1.43,0.04c0,0,0,0,0-6 C32.385,66,25.334,60.725,22.995,58.252z"/><path fill="#472b29" d="M30.625,53.746c-0.016,0-0.031-0.001-0.047-0.004c-1.773-0.338-3.351-0.848-4.69-1.518 c-0.124-0.062-0.173-0.212-0.112-0.335c0.062-0.124,0.211-0.173,0.335-0.112c1.298,0.649,2.832,1.145,4.56,1.474 c0.136,0.026,0.225,0.157,0.199,0.292C30.848,53.662,30.743,53.746,30.625,53.746z"/><path fill="#472b29" d="M37,54.25c-1.007,0-2.692,0-4.655-0.236c-0.137-0.017-0.235-0.141-0.218-0.278 c0.017-0.137,0.146-0.232,0.278-0.219c1.209,0.146,2.314,0.2,3.215,0.221c-1.861-0.811-3.632-2.003-5.278-3.556 c-0.101-0.095-0.105-0.253-0.011-0.354c0.095-0.1,0.253-0.105,0.354-0.01c1.973,1.861,4.125,3.188,6.395,3.945 c0.116,0.039,0.188,0.156,0.167,0.277C37.227,54.161,37.123,54.25,37,54.25z"/><path fill="#472b29" d="M29.291,49c-0.068,0-0.136-0.028-0.186-0.083c-1.095-1.215-1.668-2.122-1.692-2.16 c-0.073-0.117-0.038-0.271,0.079-0.344c0.117-0.073,0.271-0.038,0.345,0.079c0.005,0.009,0.576,0.911,1.64,2.091 c0.093,0.103,0.084,0.261-0.018,0.353C29.411,48.979,29.351,49,29.291,49z"/><path fill="#472b29" d="M26.5,58.573c-0.021,0-0.043-0.003-0.065-0.009c-1.028-0.279-1.907-0.638-2.687-1.099 c-0.119-0.07-0.159-0.224-0.088-0.343c0.07-0.119,0.225-0.158,0.342-0.088c0.741,0.438,1.58,0.78,2.563,1.047 c0.133,0.036,0.212,0.173,0.176,0.307C26.711,58.5,26.61,58.573,26.5,58.573z"/><path fill="#472b29" d="M34.125,59.375c-0.003,0-0.005,0-0.008,0c-1.939-0.064-3.944-0.131-5.78-0.415 c-0.137-0.021-0.23-0.149-0.209-0.285c0.021-0.136,0.153-0.229,0.285-0.209c1.359,0.21,2.822,0.299,4.283,0.358 c-0.601-0.278-1.212-0.61-1.828-0.992c-0.118-0.073-0.153-0.227-0.081-0.344c0.074-0.117,0.229-0.152,0.344-0.08 c1.05,0.653,2.084,1.152,3.072,1.481c0.118,0.039,0.189,0.159,0.167,0.281C34.35,59.289,34.246,59.375,34.125,59.375z"/><path fill="#472b29" d="M29.25,56.653c-0.053,0-0.107-0.017-0.152-0.052c-2.456-1.883-4.148-3.922-4.166-3.943 c-0.088-0.106-0.073-0.264,0.034-0.352c0.107-0.088,0.263-0.073,0.352,0.034c0.017,0.02,1.675,2.017,4.084,3.864 c0.109,0.084,0.13,0.241,0.046,0.351C29.399,56.62,29.325,56.653,29.25,56.653z"/><path fill="#472b29" d="M39,65.5c-0.013,0-0.026-0.001-0.039-0.003c-1.032-0.161-2.047-0.352-3.016-0.57 c-0.135-0.03-0.219-0.164-0.189-0.299c0.03-0.135,0.163-0.22,0.299-0.189c0.959,0.215,1.963,0.405,2.984,0.563 c0.136,0.021,0.229,0.149,0.208,0.285C39.228,65.412,39.122,65.5,39,65.5z"/><path fill="#472b29" d="M34.375,64.535c-0.021,0-0.043-0.003-0.064-0.009c-1.704-0.455-3.313-1.008-4.785-1.642 c-0.126-0.055-0.185-0.202-0.13-0.328c0.054-0.127,0.201-0.185,0.329-0.131c1.449,0.625,3.035,1.169,4.715,1.618 c0.133,0.036,0.213,0.173,0.177,0.306C34.586,64.461,34.486,64.535,34.375,64.535z"/><path fill="#472b29" d="M27.625,61.947c-0.04,0-0.08-0.009-0.117-0.029c-2.827-1.502-4.02-2.821-4.069-2.876 c-0.092-0.103-0.083-0.261,0.02-0.353c0.103-0.092,0.261-0.083,0.353,0.02c0.011,0.013,1.192,1.312,3.931,2.768 c0.122,0.065,0.168,0.216,0.104,0.338C27.801,61.899,27.714,61.947,27.625,61.947z"/><path fill="#00a5a5" d="M74.616,52.814c0.447,1.524,0.837,3.041,1.184,4.551C72.533,58.998,69.266,59,66,59 C70.316,57.15,73.106,54.543,74.616,52.814z"/><path fill="#00a5a5" d="M74.226,51.543C70.484,53.999,66.742,54,63,54c5.49-2.353,8.51-5.926,9.562-7.362 C73.167,48.28,73.722,49.916,74.226,51.543z"/><path fill="#c5def0" d="M77.005,58.252c0.296,1.363,0.551,2.721,0.76,4.071c0.156,1.008-0.35,2.015-1.247,2.5 c-7.063,3.813-14.413,6.21-22.101,6.938c-1.219,0.108-2.234,0.167-2.987,0.199C50.954,71.978,50.478,71.995,50,72c0,0,0,0,0-6 C67.615,66,74.666,60.725,77.005,58.252z"/><path fill="#472b29" d="M69.375,53.746c-0.118,0-0.222-0.083-0.245-0.203c-0.026-0.136,0.063-0.267,0.199-0.292 c1.728-0.329,3.262-0.825,4.56-1.474c0.124-0.061,0.273-0.012,0.335,0.112c0.062,0.124,0.012,0.274-0.112,0.335 c-1.339,0.669-2.917,1.18-4.69,1.518C69.406,53.744,69.39,53.746,69.375,53.746z"/><path fill="#472b29" d="M63,54.25c-0.123,0-0.227-0.089-0.247-0.21c-0.02-0.121,0.051-0.239,0.167-0.277 c2.27-0.757,4.421-2.084,6.395-3.945c0.1-0.095,0.259-0.09,0.354,0.01c0.094,0.101,0.09,0.259-0.011,0.354 c-1.646,1.553-3.417,2.745-5.278,3.556c0.901-0.021,2.006-0.075,3.215-0.221c0.135-0.016,0.261,0.081,0.278,0.219 c0.017,0.137-0.081,0.261-0.218,0.278C65.692,54.25,64.007,54.25,63,54.25z"/><path fill="#472b29" d="M70.709,49c-0.06,0-0.12-0.021-0.167-0.064c-0.103-0.093-0.111-0.251-0.018-0.353 c1.063-1.18,1.634-2.082,1.64-2.091c0.075-0.116,0.229-0.152,0.345-0.079c0.117,0.073,0.152,0.228,0.079,0.344 c-0.024,0.038-0.597,0.945-1.692,2.16C70.845,48.972,70.777,49,70.709,49z"/><path fill="#472b29" d="M73.5,58.573c-0.11,0-0.211-0.073-0.241-0.185c-0.036-0.133,0.042-0.271,0.176-0.307 c0.984-0.267,1.822-0.609,2.563-1.047c0.116-0.07,0.271-0.031,0.342,0.088c0.07,0.119,0.031,0.272-0.088,0.343 c-0.78,0.461-1.659,0.82-2.687,1.099C73.543,58.57,73.521,58.573,73.5,58.573z"/><path fill="#472b29" d="M65.875,59.375c-0.121,0-0.225-0.086-0.246-0.206c-0.022-0.122,0.049-0.242,0.167-0.281 c0.988-0.33,2.022-0.828,3.072-1.481c0.117-0.072,0.271-0.037,0.344,0.08c0.073,0.117,0.037,0.271-0.081,0.344 c-0.616,0.383-1.227,0.715-1.828,0.992c1.461-0.059,2.924-0.148,4.283-0.358c0.135-0.02,0.265,0.073,0.285,0.209 c0.021,0.136-0.072,0.264-0.209,0.285c-1.836,0.283-3.841,0.35-5.78,0.415C65.88,59.375,65.878,59.375,65.875,59.375z"/><path fill="#472b29" d="M70.75,56.653c-0.075,0-0.149-0.034-0.198-0.098c-0.084-0.11-0.063-0.267,0.046-0.351 c2.409-1.847,4.068-3.844,4.084-3.864c0.088-0.106,0.246-0.121,0.352-0.034c0.106,0.088,0.122,0.246,0.034,0.352 c-0.017,0.02-1.709,2.059-4.166,3.943C70.857,56.636,70.803,56.653,70.75,56.653z"/><path fill="#472b29" d="M61,65.5c-0.121,0-0.228-0.088-0.247-0.212c-0.021-0.136,0.072-0.264,0.208-0.285 c1.021-0.159,2.025-0.348,2.984-0.563c0.136-0.031,0.269,0.054,0.299,0.189c0.03,0.135-0.055,0.268-0.189,0.299 c-0.969,0.218-1.984,0.409-3.016,0.57C61.025,65.499,61.013,65.5,61,65.5z"/><path fill="#472b29" d="M65.625,64.535c-0.111,0-0.211-0.074-0.242-0.186c-0.036-0.133,0.044-0.27,0.177-0.306 c1.68-0.449,3.267-0.993,4.715-1.618c0.126-0.054,0.274,0.003,0.329,0.131c0.055,0.127-0.004,0.274-0.13,0.328 c-1.471,0.634-3.081,1.187-4.785,1.642C65.668,64.532,65.646,64.535,65.625,64.535z"/><path fill="#472b29" d="M72.375,61.947c-0.089,0-0.176-0.048-0.221-0.133c-0.065-0.122-0.019-0.273,0.104-0.338 c2.738-1.456,3.919-2.755,3.931-2.768c0.092-0.103,0.25-0.112,0.353-0.02c0.103,0.092,0.112,0.25,0.02,0.353 c-0.049,0.055-1.242,1.374-4.069,2.876C72.455,61.938,72.415,61.947,72.375,61.947z"/><path fill="#472b29" d="M69.279,28.607c0.561,0,1.042,0.221,1.43,0.657c0.513,0.576,1.313,2.067,0.905,5.575 c-0.316,2.722-1.005,4.512-1.526,5.534l-0.298,0.584l0.258,0.603c3.343,7.804,5.436,14.807,6.399,21.407 c0.024,0.164-0.063,0.334-0.211,0.416c-8.57,4.697-17.402,7.125-26.221,7.217c-8.848-0.091-17.68-2.52-26.25-7.217 c-0.148-0.082-0.236-0.252-0.212-0.416c0.963-6.602,3.057-13.606,6.401-21.412l0.258-0.603l-0.298-0.584 c-0.521-1.021-1.208-2.811-1.524-5.53c-0.408-3.508,0.392-4.999,0.905-5.575c0.388-0.436,0.869-0.657,1.43-0.657 c0.808,0,1.636,0.459,2.109,1.169c0.621,0.932,1.152,1.71,1.578,2.313l0.698,0.987l1.079-0.547 c3.891-1.973,8.928-3.06,14.184-3.06c5.233,0,9.983,1.075,13.375,3.026l1.105,0.636l0.736-1.042 c0.422-0.598,0.954-1.376,1.58-2.315C67.643,29.066,68.471,28.607,69.279,28.607 M69.279,27.207c-1.27,0-2.543,0.695-3.274,1.793 c-0.703,1.055-1.202,1.78-1.558,2.284c-3.723-2.142-8.837-3.213-14.073-3.213c-5.236,0-10.595,1.07-14.817,3.211 C35.201,30.778,34.702,30.054,34,29c-0.732-1.098-2.005-1.793-3.274-1.793c-2.2,0-4.389,2.089-3.726,7.793 c0.335,2.878,1.062,4.817,1.667,6.004c-3.17,7.398-5.466,14.67-6.5,21.761c-0.108,0.744,0.265,1.484,0.924,1.846 C31.614,69.282,40.552,71.902,50,72c9.448-0.098,18.386-2.718,26.909-7.389c0.659-0.361,1.032-1.102,0.924-1.846 c-1.034-7.089-3.329-14.359-6.498-21.756c0.605-1.187,1.335-3.127,1.67-6.009C73.668,29.296,71.479,27.207,69.279,27.207 L69.279,27.207z"/><path fill="#c5def0" d="M53.723,78h-7.446c-4.996,0-8.852-3.486-8.206-7.417l1.128-6.864 C39.737,60.447,43.248,58,47.405,58h5.19c4.157,0,7.669,2.447,8.206,5.718l1.128,6.864C62.575,74.514,58.719,78,53.723,78z"/><path fill="#00a5a5" d="M49.596,67.695c-1.25,3.035-4.525,4.933-10.585,4.242c-0.055,0.979,0.119-0.08,0.478,0.785 c2.587,1.063,8.4,2.473,10.512,0.07c2.081,2.082,8,1.208,10.512-0.07c0.359-0.865,0.533,0.193,0.478-0.785 c-6.061,0.691-9.335-1.207-10.585-4.242C50.257,67.338,49.743,67.338,49.596,67.695z"/><path fill="#472b29" d="M52.595,59.4c3.465,0,6.399,1.954,6.825,4.545l1.128,6.864c0.248,1.506-0.42,2.67-1.024,3.381 C58.243,75.7,56.075,76.6,53.723,76.6h-7.446c-2.352,0-4.52-0.9-5.801-2.409c-0.604-0.711-1.271-1.875-1.024-3.381l1.128-6.864 c0.426-2.591,3.36-4.545,6.825-4.545H52.595 M52.595,58h-5.19c-4.157,0-7.669,2.447-8.206,5.718l-1.128,6.864 C37.425,74.514,41.281,78,46.277,78h7.446c4.996,0,8.852-3.486,8.206-7.417l-1.128-6.864C60.263,60.447,56.752,58,52.595,58 L52.595,58z"/><path fill="#00a5a5" d="M46,57.562c2.667,0.684,5.333,0.684,8,0c1.022-0.262,2,0.594,2,1.802v0.025 c0,0.621-0.269,1.201-0.717,1.546L50,65l-5.283-4.065C44.269,60.59,44,60.01,44,59.389v-0.025C44,58.156,44.978,57.3,46,57.562z"/><path fill="#472b29" d="M50,65.5c-0.107,0-0.215-0.035-0.305-0.104l-5.283-4.065c-0.571-0.44-0.912-1.166-0.912-1.942 c0-0.803,0.327-1.503,0.898-1.946c0.498-0.386,1.126-0.519,1.726-0.366l0,0c2.572,0.66,5.18,0.66,7.752,0 c0.601-0.153,1.229-0.02,1.726,0.366c0.571,0.443,0.898,1.143,0.898,1.921c0,0.801-0.341,1.527-0.912,1.967l-5.284,4.065 C50.215,65.465,50.107,65.5,50,65.5z M45.629,58.015c-0.219,0-0.432,0.074-0.618,0.219c-0.325,0.252-0.511,0.664-0.511,1.131 c0,0.493,0.195,0.923,0.522,1.174L50,64.369l4.979-3.831c0.326-0.251,0.521-0.681,0.521-1.15c0-0.491-0.186-0.904-0.511-1.156 c-0.256-0.198-0.562-0.265-0.865-0.187c-2.736,0.702-5.512,0.702-8.248,0C45.793,58.025,45.71,58.015,45.629,58.015z"/><path fill="#472b29" d="M58.875,72.262c-2.077,0-3.874-0.378-5.363-1.131c-0.123-0.062-0.172-0.213-0.11-0.336 c0.063-0.124,0.213-0.173,0.336-0.11c1.921,0.971,4.396,1.289,7.358,0.942c0.133-0.018,0.261,0.082,0.277,0.219 c0.016,0.137-0.083,0.261-0.22,0.277C60.361,72.216,59.601,72.262,58.875,72.262z"/><path fill="#472b29" d="M44.125,71.972c-0.116,0-0.22-0.082-0.245-0.2c-0.027-0.135,0.06-0.267,0.195-0.295 c3.046-0.622,4.959-2.206,5.685-4.707c0.032-0.109,0.116-0.173,0.245-0.18c0.113,0.002,0.211,0.08,0.238,0.19 c0.004,0.016,0.424,1.649,2.129,3.026c0.107,0.087,0.124,0.244,0.037,0.352s-0.244,0.125-0.352,0.037 c-1.15-0.929-1.753-1.954-2.049-2.611c-0.913,2.278-2.915,3.787-5.833,4.383C44.158,71.97,44.141,71.972,44.125,71.972z"/><path fill="#472b29" d="M41.22,72.25c-1.05,0-1.758-0.101-1.798-0.106c-0.136-0.02-0.231-0.146-0.211-0.283 c0.02-0.136,0.151-0.235,0.283-0.211c0.013,0.002,1.316,0.186,2.987,0.051c0.134-0.011,0.258,0.092,0.269,0.229 c0.011,0.138-0.091,0.258-0.229,0.27C42.05,72.236,41.611,72.25,41.22,72.25z"/><path fill="#c5def0" d="M34,42c0,0,1-6,5-6c1,0,4,1,5,6c0.981,4.903,1,10,1,10L34,42z"/><path fill="#00a5a5" d="M34,42c0,0,9,1,11,10C41,52,33,53,34,42z"/><path fill="#472b29" d="M34.103,46.375c-0.119,0-0.224-0.085-0.246-0.206c-0.213-1.206-0.249-2.616-0.106-4.191 c0.006-0.067,0.039-0.128,0.091-0.171c0.053-0.042,0.126-0.061,0.186-0.055c0.032,0.004,0.791,0.09,1.92,0.431 c0.132,0.04,0.207,0.179,0.167,0.311c-0.04,0.132-0.177,0.208-0.312,0.167c-0.708-0.213-1.27-0.323-1.576-0.375 c-0.112,1.425-0.071,2.7,0.123,3.795c0.024,0.136-0.066,0.266-0.203,0.29C34.132,46.374,34.117,46.375,34.103,46.375z"/><path fill="#472b29" d="M39,51.869c-0.021,0-0.042-0.003-0.063-0.008c-2.234-0.588-3.72-1.835-4.543-3.813 c-0.053-0.127,0.007-0.274,0.135-0.327c0.129-0.053,0.274,0.007,0.327,0.135c0.759,1.824,2.135,2.976,4.208,3.521 c0.134,0.035,0.213,0.172,0.178,0.305C39.212,51.795,39.111,51.869,39,51.869z"/><path fill="#edf7f5" d="M40.5,50c1.306,0,2.431-0.724,3.033-1.784c-1.335-2.278-3.194-3.734-4.919-4.657 C37.645,44.182,37,45.263,37,46.5C37,48.433,38.567,50,40.5,50z"/><path fill="#472b29" d="M42,49.908c-0.093,0-0.182-0.052-0.225-0.141c-0.06-0.125-0.008-0.274,0.116-0.334 c0.599-0.29,1.091-0.753,1.424-1.34c0.068-0.12,0.221-0.162,0.34-0.094c0.12,0.068,0.163,0.221,0.094,0.341 c-0.383,0.676-0.95,1.209-1.641,1.543C42.074,49.9,42.037,49.908,42,49.908z"/><path fill="#472b29" d="M40.5,50.25c-1.647,0-3.125-1.102-3.595-2.679c-0.039-0.132,0.036-0.271,0.168-0.311 c0.135-0.04,0.272,0.036,0.311,0.168c0.407,1.367,1.688,2.321,3.115,2.321c0.138,0,0.25,0.112,0.25,0.25S40.638,50.25,40.5,50.25z"/><path fill="#472b29" d="M37.283,45.375c-0.033,0-0.067-0.007-0.099-0.021c-0.126-0.054-0.185-0.202-0.13-0.328 c0.296-0.688,0.79-1.268,1.425-1.677c0.116-0.075,0.271-0.042,0.346,0.075c0.075,0.116,0.041,0.271-0.075,0.345 c-0.552,0.355-0.98,0.858-1.237,1.454C37.472,45.318,37.379,45.375,37.283,45.375z"/><path fill="#472b29" d="M42.912,52.274c-0.741,0-1.523-0.022-2.315-0.111c-0.137-0.016-0.236-0.139-0.221-0.276 c0.016-0.137,0.141-0.235,0.276-0.221c1.188,0.134,2.367,0.113,3.409,0.096c0.215-0.004,0.423-0.007,0.623-0.009 c-1.17-4.776-4.392-7.171-6.916-8.343c-0.125-0.058-0.179-0.207-0.121-0.332c0.058-0.126,0.208-0.179,0.332-0.122 c2.679,1.244,6.113,3.814,7.264,8.99c0.017,0.074-0.001,0.151-0.049,0.211C45.147,52.216,45.076,52.25,45,52.25 c-0.291,0-0.602,0.005-0.93,0.011C43.7,52.267,43.312,52.274,42.912,52.274z"/><circle cx="40.5" cy="46.5" r="1.5" fill="#472b29"/><path fill="#c5def0" d="M66,42c0,0-1-6-5-6c-1,0-4,1-5,6c-0.981,4.903-1,10-1,10L66,42z"/><path fill="#00a5a5" d="M66,42c0,0-9,1-11,10C59,52,67,53,66,42z"/><path fill="#472b29" d="M65.897,46.375c-0.015,0-0.029-0.001-0.044-0.004c-0.136-0.024-0.227-0.154-0.203-0.29 c0.194-1.095,0.235-2.37,0.123-3.795c-0.306,0.051-0.868,0.161-1.576,0.375c-0.134,0.04-0.271-0.035-0.312-0.167 s0.035-0.271,0.167-0.311c1.129-0.34,1.888-0.427,1.92-0.431c0.065-0.006,0.134,0.012,0.186,0.055s0.084,0.104,0.091,0.171 c0.143,1.575,0.107,2.986-0.106,4.191C66.122,46.29,66.016,46.375,65.897,46.375z"/><path fill="#472b29" d="M61,51.869c-0.111,0-0.212-0.074-0.242-0.186c-0.035-0.134,0.044-0.27,0.178-0.305 c2.073-0.545,3.449-1.697,4.208-3.521c0.053-0.128,0.199-0.188,0.327-0.135c0.127,0.053,0.188,0.199,0.135,0.327 c-0.823,1.978-2.309,3.225-4.543,3.813C61.042,51.867,61.021,51.869,61,51.869z"/><path fill="#edf7f5" d="M59.5,50c-1.306,0-2.431-0.724-3.033-1.784c1.335-2.278,3.194-3.734,4.919-4.657 C62.355,44.182,63,45.263,63,46.5C63,48.433,61.433,50,59.5,50z"/><path fill="#472b29" d="M58,49.908c-0.037,0-0.074-0.008-0.109-0.025c-0.691-0.334-1.258-0.868-1.641-1.543 c-0.068-0.12-0.026-0.273,0.094-0.341c0.118-0.068,0.271-0.026,0.34,0.094c0.333,0.587,0.825,1.05,1.424,1.34 c0.124,0.06,0.176,0.209,0.116,0.334C58.182,49.856,58.093,49.908,58,49.908z"/><path fill="#472b29" d="M59.5,50.25c-0.138,0-0.25-0.112-0.25-0.25s0.112-0.25,0.25-0.25c1.428,0,2.708-0.955,3.115-2.321 c0.04-0.132,0.177-0.208,0.311-0.168c0.132,0.039,0.208,0.178,0.168,0.311C62.625,49.148,61.147,50.25,59.5,50.25z"/><path fill="#472b29" d="M62.717,45.375c-0.097,0-0.189-0.056-0.229-0.151c-0.257-0.596-0.685-1.099-1.237-1.454 c-0.116-0.074-0.15-0.229-0.075-0.345c0.075-0.116,0.229-0.15,0.346-0.075c0.636,0.409,1.129,0.988,1.425,1.677 c0.055,0.127-0.004,0.274-0.13,0.328C62.784,45.368,62.75,45.375,62.717,45.375z"/><path fill="#472b29" d="M57.088,52.274c-0.4,0-0.788-0.007-1.158-0.013c-0.328-0.006-0.639-0.011-0.93-0.011 c-0.076,0-0.147-0.034-0.195-0.094c-0.048-0.059-0.066-0.137-0.049-0.211c1.15-5.177,4.585-7.746,7.264-8.99 c0.126-0.058,0.274-0.004,0.332,0.122c0.058,0.125,0.004,0.274-0.121,0.332c-2.524,1.172-5.745,3.567-6.916,8.343 c0.2,0.002,0.408,0.006,0.623,0.009c1.042,0.017,2.223,0.038,3.409-0.096c0.131-0.014,0.26,0.083,0.276,0.221 c0.015,0.137-0.083,0.261-0.221,0.276C58.611,52.251,57.829,52.274,57.088,52.274z"/><circle cx="59.5" cy="46.5" r="1.5" fill="#472b29"/></g></svg>