<svg xmlns="http://www.w3.org/2000/svg"  viewBox="0 0 100 100" width="100px" height="100px"><path fill="#ee3e54" d="M13,27c-1.105,0-2,0.895-2,2s0.895,2,2,2s2-0.895,2-2S14.105,27,13,27z"/><path fill="#f1bc19" d="M77,12c-0.551,0-1,0.449-1,1s0.449,1,1,1s1-0.449,1-1S77.551,12,77,12z"/><path fill="#fce0a2" d="M50,13c-20.434,0-37,16.566-37,37s16.566,37,37,37s37-16.566,37-37S70.434,13,50,13z"/><path fill="#f1bc19" d="M83,11c-2.211,0-4,1.789-4,4s1.789,4,4,4s4-1.789,4-4S85.211,11,83,11z"/><path fill="#ee3e54" d="M87,22c-1.105,0-2,0.895-2,2s0.895,2,2,2s2-0.895,2-2S88.105,22,87,22z"/><path fill="#fbcd59" d="M81,74c-1.105,0-2,0.895-2,2s0.895,2,2,2s2-0.895,2-2S82.105,74,81,74z M15,59 c-2.211,0-4,1.789-4,4s1.789,4,4,4s4-1.789,4-4S17.211,59,15,59z"/><path fill="#ee3e54" d="M25,85c-1.105,0-2,0.895-2,2s0.895,2,2,2s2-0.895,2-2S26.105,85,25,85z"/><path fill="#fff" d="M18.5,44c-1.379,0-2.5,1.121-2.5,2.5s1.121,2.5,2.5,2.5s2.5-1.121,2.5-2.5S19.879,44,18.5,44z"/><path fill="#f1bc19" d="M21,66c-0.551,0-1,0.449-1,1s0.449,1,1,1s1-0.449,1-1S21.551,66,21,66z"/><path fill="#fff" d="M80,33c-0.551,0-1,0.449-1,1s0.449,1,1,1s1-0.449,1-1S80.551,33,80,33z"/><g><path fill="#77cbd2" d="M66,52.347V48c0-1.467-0.214-2.88-0.583-4.229c6.726-1.709,11.347-12.889,3.371-18.383 c-6.832-4.706-10.773,3.712-12.269,8.01C54.526,32.506,52.324,32,50,32c-2.383,0-4.637,0.535-6.669,1.47 c-1.461-4.275-5.366-12.814-12.164-8.082c-7.921,5.515-3.285,16.758,3.411,18.401C34.212,45.133,34,46.54,34,48v5.043 c-2.469,1.903-4,4.54-4,7.457c0,5.315,5.082,9.696,11.669,10.393C43.461,75.411,46.522,80,50,80c3.459,0,6.507-4.548,8.303-9.031 C65.383,70.644,71,66.088,71,60.5C71,57.208,69.049,54.272,66,52.347z"/><path fill="#00a5a5" d="M51,74.203C51,73.539,51.539,73,52.203,73h0.313c0.627,0,1.193-0.411,1.354-1.016 C53.954,71.67,54,71.341,54,71v-0.5c0-0.828-0.672-1.5-1.5-1.5h-5c-0.828,0-1.5,0.672-1.5,1.5V71c0,0.341,0.046,0.67,0.129,0.984 C46.291,72.589,46.857,73,47.483,73h0.313C48.461,73,49,73.539,49,74.203c0,0,0,0.797,1,0.797C51.125,75,51,74.203,51,74.203z"/><path fill="#472b29" d="M50,75.5c-1.101,0-1.5-0.776-1.5-1.297c0-0.388-0.315-0.703-0.703-0.703h-0.313 c-0.864,0-1.62-0.571-1.837-1.387C45.549,71.748,45.5,71.373,45.5,71v-0.5c0-1.103,0.897-2,2-2h5c1.103,0,2,0.897,2,2V71 c0,0.373-0.049,0.748-0.146,1.112c-0.218,0.817-0.973,1.388-1.837,1.388h-0.313c-0.381,0-0.692,0.304-0.703,0.683 c0.011,0.146,0.008,0.523-0.271,0.849C50.963,75.343,50.55,75.5,50,75.5z M47.5,69.5c-0.551,0-1,0.448-1,1V71 c0,0.287,0.038,0.574,0.113,0.855c0.101,0.379,0.459,0.645,0.871,0.645h0.313c0.939,0,1.703,0.764,1.703,1.703 c0.012,0.193,0.18,0.297,0.5,0.297c0.341,0,0.445-0.09,0.469-0.118c0.033-0.039,0.037-0.101,0.037-0.102L50.5,74.203 c0-0.939,0.764-1.703,1.703-1.703h0.313c0.412,0,0.77-0.265,0.871-0.645C53.462,71.574,53.5,71.287,53.5,71v-0.5 c0-0.552-0.449-1-1-1H47.5z"/><circle cx="42" cy="51" r="5" fill="#00a5a5"/><circle cx="58" cy="51" r="5" fill="#00a5a5"/><circle cx="43" cy="50" r="3" fill="#edf7f5"/><circle cx="43" cy="50" r="1" fill="#472b29"/><circle cx="57" cy="50" r="3" fill="#edf7f5"/><circle cx="57" cy="50" r="1" fill="#472b29"/><path fill="#00a5a5" d="M31.008,33.5c0,0-0.375-3.125,1.875-5.125s5-0.375,5.25,2.5S39.008,38,36.258,39.25 S31.258,36.875,31.008,33.5z"/><path fill="#c5def0" d="M36.25,47.467c0,0,4.25,2.033,7.625,2.033c6.875,0,4.875-6.353,2.174-6.48 C42.371,42.847,38.625,43.782,36.25,47.467z"/><path fill="#472b29" d="M35.136,39.67c-0.366,0-0.738-0.061-1.106-0.184c-0.131-0.044-0.202-0.185-0.158-0.316 c0.044-0.131,0.187-0.201,0.316-0.158c0.823,0.274,1.666,0.188,2.376-0.245c0.838-0.511,1.403-1.456,1.589-2.66 c0.021-0.136,0.154-0.229,0.285-0.209c0.137,0.021,0.23,0.149,0.209,0.285c-0.209,1.352-0.856,2.422-1.823,3.011 C36.307,39.51,35.73,39.67,35.136,39.67z"/><path fill="#472b29" d="M38.485,35c-0.003,0-0.006,0-0.009,0c-0.138-0.005-0.246-0.121-0.241-0.259 c0.068-1.926-0.102-3.494-0.502-4.66c-0.045-0.131,0.024-0.273,0.155-0.318c0.131-0.046,0.272,0.025,0.317,0.155 c0.421,1.224,0.599,2.853,0.529,4.84C38.73,34.894,38.62,35,38.485,35z"/><path fill="#472b29" d="M32.5,29.165c-0.036,0-0.072-0.008-0.107-0.024c-0.125-0.059-0.178-0.208-0.119-0.333 c0.298-0.631,1.254-1.383,2.438-1.533c1.027-0.13,1.968,0.248,2.647,1.064c0.088,0.106,0.074,0.264-0.033,0.352 c-0.105,0.088-0.263,0.074-0.352-0.032c-0.725-0.872-1.593-0.964-2.2-0.888c-0.958,0.122-1.809,0.744-2.048,1.25 C32.684,29.112,32.594,29.165,32.5,29.165z"/><path fill="#00a5a5" d="M68.992,33.5c0,0,0.375-3.125-1.875-5.125s-5-0.375-5.25,2.5S60.992,38,63.742,39.25 C66.492,40.5,68.742,36.875,68.992,33.5z"/><path fill="#472b29" d="M64.864,39.67c-0.594,0-1.171-0.16-1.689-0.476c-0.966-0.589-1.614-1.658-1.823-3.011 c-0.021-0.136,0.072-0.264,0.209-0.285c0.135-0.02,0.264,0.073,0.285,0.209c0.186,1.204,0.75,2.149,1.589,2.66 c0.711,0.433,1.553,0.519,2.376,0.245c0.131-0.043,0.272,0.027,0.316,0.158c0.043,0.131-0.027,0.272-0.158,0.316 C65.602,39.61,65.229,39.67,64.864,39.67z"/><path fill="#472b29" d="M61.515,35c-0.134,0-0.245-0.106-0.25-0.241c-0.069-1.988,0.108-3.616,0.529-4.84 c0.045-0.13,0.186-0.2,0.317-0.155c0.131,0.045,0.2,0.187,0.155,0.318c-0.4,1.166-0.57,2.734-0.502,4.66 c0.005,0.138-0.103,0.254-0.241,0.259C61.521,35,61.518,35,61.515,35z"/><path fill="#472b29" d="M67.5,29.165c-0.094,0-0.184-0.053-0.226-0.143c-0.239-0.507-1.091-1.129-2.048-1.25 c-0.604-0.077-1.474,0.016-2.2,0.888c-0.088,0.106-0.246,0.12-0.352,0.032c-0.106-0.088-0.121-0.246-0.033-0.352 c0.68-0.817,1.622-1.194,2.647-1.064c1.184,0.15,2.139,0.902,2.438,1.533c0.059,0.125,0.005,0.274-0.119,0.333 C67.572,29.158,67.536,29.165,67.5,29.165z"/><path fill="#472b29" d="M64.902,25.399c0.952,0,1.992,0.384,3.091,1.141c3.824,2.634,3.809,6.299,3.46,8.25 c-0.652,3.644-3.336,6.849-6.381,7.623l-1.382,0.351l0.377,1.375C64.42,45.434,64.6,46.732,64.6,48v4.347v0.771l0.652,0.412 c2.763,1.745,4.348,4.285,4.348,6.97c0,4.794-4.991,8.778-11.361,9.07l-0.9,0.041l-0.335,0.837C55.02,75.4,52.271,78.6,50,78.6 c-2.289,0-5.049-3.228-7.029-8.224l-0.312-0.787L41.817,69.5c-5.938-0.628-10.417-4.498-10.417-9 c0-2.376,1.227-4.631,3.455-6.348l0.545-0.42v-0.688V48c0-1.261,0.178-2.554,0.529-3.843l0.378-1.386l-1.395-0.342 c-3.004-0.737-5.675-3.914-6.352-7.555c-0.367-1.973-0.412-5.679,3.407-8.338c1.084-0.754,2.108-1.137,3.044-1.137 c3.685,0,6.119,5.96,6.995,8.523l0.501,1.467l1.409-0.648C45.852,33.852,47.899,33.4,50,33.4c2.054,0,4.055,0.429,5.947,1.275 l1.392,0.623l0.501-1.441C58.726,31.314,61.186,25.399,64.902,25.399 M64.902,24c-4.478,0-7.198,5.992-8.383,9.398 C54.526,32.506,52.324,32,50,32c-2.383,0-4.637,0.535-6.669,1.47C42.172,30.078,39.473,24,35.012,24 c-1.161,0-2.441,0.411-3.844,1.388c-7.921,5.515-3.285,16.758,3.411,18.401C34.212,45.133,34,46.54,34,48v5.043 c-2.469,1.903-4,4.54-4,7.457c0,5.315,5.082,9.696,11.669,10.393C43.461,75.411,46.522,80,50,80c3.459,0,6.507-4.548,8.303-9.031 C65.383,70.644,71,66.088,71,60.5c0-3.292-1.951-6.228-5-8.153V48c0-1.467-0.214-2.88-0.583-4.229 c6.726-1.709,11.347-12.889,3.371-18.383C67.369,24.411,66.075,24,64.902,24L64.902,24z"/><path fill="#472b29" d="M48.202,48.125c-0.041,0-0.083-0.01-0.121-0.031c-0.121-0.067-0.165-0.219-0.098-0.34 c0.558-1.004,0.277-2.182,0.274-2.193c-0.033-0.134,0.049-0.27,0.183-0.303c0.132-0.034,0.269,0.048,0.303,0.182 c0.014,0.055,0.333,1.376-0.322,2.557C48.375,48.079,48.29,48.125,48.202,48.125z"/><path fill="#472b29" d="M44.5,49.75c-1.184,0-2.792-0.298-4.781-0.885c-0.132-0.039-0.208-0.178-0.169-0.311 c0.039-0.133,0.179-0.208,0.311-0.169c1.942,0.573,3.503,0.864,4.639,0.864c1.17,0,2.09-0.226,2.733-0.672 c0.113-0.079,0.27-0.051,0.348,0.063s0.05,0.269-0.063,0.348C46.79,49.494,45.774,49.75,44.5,49.75z"/><path fill="#472b29" d="M38.591,48.5c-0.026,0-0.052-0.004-0.078-0.013c-1.22-0.402-2.097-0.752-2.105-0.755 c-0.128-0.051-0.19-0.197-0.139-0.325s0.196-0.191,0.325-0.139c0.009,0.003,0.873,0.348,2.076,0.745 c0.131,0.043,0.203,0.185,0.159,0.316C38.793,48.434,38.696,48.5,38.591,48.5z"/><path fill="#c5def0" d="M63.707,47.467c0,0-4.25,2.033-7.625,2.033c-6.875,0-4.875-6.353-2.174-6.48 C57.585,42.847,61.332,43.782,63.707,47.467z"/><path fill="#472b29" d="M51.389,46.875c-0.128,0-0.237-0.098-0.249-0.229c-0.058-0.67,0.068-1.185,0.074-1.207 c0.033-0.134,0.171-0.216,0.303-0.182c0.134,0.033,0.215,0.169,0.183,0.302c-0.001,0.005-0.111,0.461-0.061,1.043 c0.012,0.138-0.09,0.259-0.228,0.271C51.403,46.875,51.396,46.875,51.389,46.875z"/><path fill="#472b29" d="M54.125,49.637c-0.016,0-0.031-0.001-0.046-0.004c-1.276-0.239-2.156-0.835-2.615-1.773 c-0.061-0.124-0.009-0.274,0.115-0.334c0.123-0.06,0.273-0.01,0.334,0.115c0.386,0.788,1.145,1.293,2.257,1.501 c0.136,0.025,0.225,0.156,0.2,0.292C54.348,49.553,54.243,49.637,54.125,49.637z"/><path fill="#472b29" d="M55.457,49.75c-0.138,0-0.25-0.112-0.25-0.25s0.112-0.25,0.25-0.25c2.92,0,7.857-1.962,7.907-1.982 c0.128-0.052,0.273,0.011,0.325,0.139c0.051,0.128-0.011,0.274-0.139,0.325C63.344,47.814,58.473,49.75,55.457,49.75z"/><path fill="#472b29" d="M42.5,71.125c-0.196,0-0.383-0.117-0.462-0.31c-1.767-4.292-1.788-9.472-1.788-9.69 c0-0.276,0.224-0.5,0.5-0.5c0.276,0,0.5,0.224,0.5,0.5c0,0.052,0.022,5.204,1.712,9.31c0.105,0.255-0.017,0.548-0.272,0.653 C42.628,71.113,42.563,71.125,42.5,71.125z"/><path fill="#472b29" d="M57.5,71.125c-0.063,0-0.128-0.012-0.19-0.038c-0.255-0.105-0.377-0.397-0.272-0.653 c1.69-4.105,1.712-9.258,1.712-9.31c0-0.276,0.224-0.5,0.5-0.5l0,0c0.276,0,0.5,0.224,0.5,0.5c0,0.219-0.021,5.398-1.788,9.69 C57.883,71.009,57.696,71.125,57.5,71.125z"/><path fill="#77cbd2" d="M66.168,64.625c-1.03,1.094-2.629,2.171-5.043,3.125"/><path fill="#472b29" d="M61.125,68c-0.1,0-0.194-0.06-0.232-0.158c-0.051-0.128,0.012-0.274,0.141-0.324 c2.185-0.863,3.851-1.894,4.953-3.064c0.095-0.101,0.253-0.105,0.354-0.01c0.101,0.094,0.105,0.253,0.011,0.353 c-1.152,1.224-2.879,2.296-5.133,3.186C61.187,67.994,61.156,68,61.125,68z"/><path fill="#77cbd2" d="M67.847,60.875c-0.028,0.782-0.232,1.633-0.736,2.5"/><path fill="#472b29" d="M67.111,63.625c-0.043,0-0.086-0.011-0.125-0.034c-0.12-0.069-0.16-0.222-0.091-0.342 c0.436-0.75,0.672-1.552,0.702-2.384c0.005-0.138,0.119-0.254,0.259-0.241c0.138,0.005,0.246,0.121,0.241,0.259 c-0.033,0.915-0.292,1.795-0.769,2.617C67.281,63.581,67.197,63.625,67.111,63.625z"/><path fill="#77cbd2" d="M66.697,57.125c0,0,0.561,0.738,0.9,1.875"/><path fill="#472b29" d="M67.597,59.25c-0.108,0-0.207-0.07-0.24-0.178c-0.321-1.075-0.854-1.788-0.86-1.795 c-0.083-0.11-0.062-0.267,0.048-0.35c0.108-0.083,0.266-0.062,0.35,0.048c0.024,0.031,0.592,0.787,0.941,1.954 c0.04,0.132-0.036,0.271-0.168,0.311C67.645,59.246,67.621,59.25,67.597,59.25z"/><path fill="#77cbd2" d="M34.957,64.625c1.03,1.094,2.629,2.171,5.043,3.125"/><path fill="#472b29" d="M40,68c-0.031,0-0.062-0.006-0.092-0.018c-2.254-0.89-3.981-1.962-5.133-3.186 c-0.095-0.101-0.09-0.259,0.011-0.353c0.1-0.095,0.259-0.09,0.354,0.01c1.102,1.17,2.768,2.2,4.953,3.064 c0.128,0.051,0.191,0.196,0.141,0.324C40.194,67.94,40.1,68,40,68z"/><path fill="#77cbd2" d="M33.278,60.875c0.028,0.782,0.232,1.633,0.736,2.5"/><path fill="#472b29" d="M34.014,63.625c-0.086,0-0.17-0.045-0.216-0.125c-0.477-0.822-0.736-1.702-0.769-2.617 c-0.005-0.138,0.103-0.254,0.241-0.259c0.149-0.012,0.254,0.103,0.259,0.241c0.03,0.832,0.266,1.634,0.702,2.384 c0.069,0.119,0.029,0.272-0.091,0.342C34.1,63.614,34.057,63.625,34.014,63.625z"/><path fill="#77cbd2" d="M34.428,57.125c0,0-0.561,0.738-0.9,1.875"/><path fill="#472b29" d="M33.528,59.25c-0.023,0-0.048-0.003-0.072-0.01c-0.132-0.04-0.208-0.179-0.168-0.311 c0.349-1.167,0.917-1.923,0.941-1.954c0.084-0.11,0.242-0.131,0.35-0.048c0.11,0.083,0.131,0.24,0.048,0.35 c-0.005,0.007-0.539,0.72-0.86,1.795C33.735,59.18,33.636,59.25,33.528,59.25z"/><g><path fill="#472b29" d="M39,55.205c-0.053,0-0.106-0.017-0.151-0.051c-0.583-0.444-1.04-0.978-1.322-1.542 c-0.062-0.124-0.012-0.274,0.112-0.335c0.125-0.061,0.273-0.012,0.335,0.112c0.248,0.497,0.655,0.969,1.178,1.368 c0.11,0.084,0.131,0.24,0.047,0.35C39.149,55.171,39.075,55.205,39,55.205z"/></g><g><path fill="#472b29" d="M42.068,56.271c-0.592,0-1.191-0.109-1.779-0.326c-0.13-0.048-0.196-0.192-0.148-0.321 c0.048-0.129,0.193-0.195,0.321-0.148c0.716,0.264,1.829,0.485,3.067,0.039c0.132-0.047,0.274,0.021,0.32,0.15 c0.047,0.13-0.021,0.273-0.15,0.32C43.17,56.175,42.622,56.271,42.068,56.271z"/></g><g><path fill="#472b29" d="M45.125,55.125c-0.072,0-0.143-0.031-0.193-0.091c-0.088-0.106-0.073-0.264,0.034-0.352 c2.707-2.236,1.562-5.438,1.55-5.47c-0.048-0.13,0.018-0.273,0.147-0.321c0.131-0.049,0.274,0.018,0.321,0.147 c0.013,0.035,1.277,3.57-1.7,6.03C45.238,55.106,45.181,55.125,45.125,55.125z"/></g><g><path fill="#472b29" d="M61,55.205c-0.075,0-0.149-0.034-0.199-0.098c-0.084-0.11-0.063-0.267,0.047-0.35 c0.522-0.398,0.93-0.871,1.178-1.368c0.063-0.124,0.213-0.173,0.335-0.112c0.124,0.062,0.173,0.212,0.112,0.335 c-0.282,0.564-0.739,1.097-1.322,1.542C61.106,55.188,61.053,55.205,61,55.205z"/></g><g><path fill="#472b29" d="M57.932,56.271c-0.554,0-1.102-0.095-1.63-0.285c-0.13-0.047-0.197-0.19-0.15-0.32 s0.189-0.197,0.32-0.15c1.24,0.446,2.352,0.225,3.067-0.039c0.129-0.048,0.273,0.019,0.321,0.148 c0.048,0.13-0.018,0.273-0.148,0.321C59.124,56.162,58.524,56.271,57.932,56.271z"/></g><g><path fill="#472b29" d="M54.875,55.125c-0.056,0-0.113-0.019-0.159-0.057c-2.978-2.459-1.713-5.994-1.7-6.03 c0.048-0.129,0.193-0.195,0.321-0.147c0.129,0.048,0.196,0.191,0.148,0.321c-0.048,0.131-1.149,3.241,1.55,5.471 c0.106,0.088,0.122,0.245,0.034,0.352C55.019,55.094,54.947,55.125,54.875,55.125z"/></g></g></svg>