<svg xmlns="http://www.w3.org/2000/svg"  viewBox="0 0 100 100" width="100px" height="100px"><circle cx="77" cy="13" r="1" fill="#f1bc19"/><circle cx="50" cy="50" r="37" fill="#e6edb7"/><circle cx="83" cy="15" r="4" fill="#f1bc19"/><circle cx="87" cy="24" r="2" fill="#9f8066"/><circle cx="81" cy="76" r="2" fill="#fbcd59"/><path fill="#fbcd59" d="M18,64c0,2.209-0.791,4-3,4s-4-1.791-4-4c0-2.209,1.791-4,4-4S18,61.791,18,64z"/><circle cx="25" cy="87" r="2" fill="#9f8066"/><circle cx="20.5" cy="52.5" r="2.5" fill="#fff"/><circle cx="79.5" cy="40.5" r="1.5" fill="#fff"/><path fill="#edf7f5" d="M73.625,34.748c0,0,1.439,2.159,1.876,4.035c0.062,0.268,0.442,0.295,0.544,0.039 c0.58-1.46,0.58-2.571,0.58-5.074C76.625,30.748,73.625,34.748,73.625,34.748z"/><path fill="#472b29" d="M75.779,39.25c-0.014,0-0.027,0-0.042-0.002c-0.238-0.018-0.426-0.178-0.479-0.409 c-0.422-1.811-1.827-3.931-1.841-3.953l-0.098-0.147l0.105-0.141c0.442-0.589,1.958-2.482,2.874-2.181 c0.576,0.192,0.576,1.049,0.576,1.331c0,2.514,0,3.661-0.598,5.166C76.195,39.119,75.999,39.25,75.779,39.25z M73.931,34.76 c0.337,0.529,1.434,2.333,1.813,3.966l0.301,0.096l-0.232-0.092c0.563-1.416,0.563-2.46,0.563-4.982 c0-0.722-0.18-0.838-0.234-0.857C75.75,32.767,74.723,33.739,73.931,34.76z"/><path fill="#edf7f5" d="M70,36.623c0,0,1.439,2.159,1.876,4.035c0.062,0.268,0.442,0.295,0.544,0.039 C73,39.237,73,38.126,73,35.623C73,32.623,70,36.623,70,36.623z"/><path fill="#472b29" d="M72.154,41.125c-0.014,0-0.027,0-0.042-0.002c-0.238-0.018-0.426-0.178-0.479-0.409 c-0.422-1.811-1.827-3.931-1.841-3.953l-0.098-0.147l0.105-0.141c0.442-0.589,1.959-2.483,2.874-2.181 c0.576,0.192,0.576,1.049,0.576,1.331c0,2.514,0,3.661-0.598,5.166C72.57,40.994,72.374,41.125,72.154,41.125z M70.306,36.635 c0.337,0.529,1.434,2.333,1.813,3.966l0.301,0.096l-0.232-0.092c0.563-1.416,0.563-2.46,0.563-4.982 c0-0.722-0.18-0.838-0.234-0.857C72.127,34.64,71.098,35.614,70.306,36.635z"/><path fill="#77cbd2" d="M62,52c-3,0-4.219-3.117-2-7c4-7,17-12,17-12s-1-7-5-7c-3,0-6,2-8,2s-6-3-10-1 c-1.907,0.834-3.642,2.156-5.222,3.83C44.675,28.773,39.977,30.016,37,32c3,1,5,2,6,5c-4-1-7-1-10,2c4,1,5,3,6,5c-3,0-6,0-9,3 c4,1,6,2,7,5c-3,0-6,1-10,4c4,0,7,3,8,5c-5,0-9,4-9,4c4,1,6,3,7,5c-5,2-7,5-7,5s1,0,8,0h22c0,0,1-5,3-11c1.703-5.109,6-6,12-8 s5-5,5-5S65,52,62,52z"/><path fill="#00a5a5" d="M48.875,30.875C48.875,30.875,38,41,34,75c-7,0-8,0-8,0s2-3,7-5c-1-2-3-4-7-5c0,0,4-4,9-4 c-1-2-4-5-8-5c4-3,7-4,10-4c-1-3-3-4-7-5c3-3,6-3,9-3c-1-2-2-4-6-5c3-3,6-3,10-2c-1-3-3-4-6-5C40,30,44.75,28.75,48.875,30.875z"/><circle cx="55" cy="38" r="4" fill="#00a5a5"/><circle cx="56" cy="37" r="3" fill="#edf7f5"/><path fill="#00a5a5" d="M61,43c0,0-5.75,9,2.125,9c0,0-6.125,3-8.125,0S61,43,61,43z"/><path fill="#00a5a5" d="M41.75,75c0,0,1.25-8,4.25-12c6-8,28-9,28-9c-3,3-12.986,3.848-15,9c-2.303,5.891-3,12-3,12H41.75z"/><path fill="#00a5a5" d="M74.045,42.109c0,0-1.125,4.5-4.125,2.625c-1.5-1-0.5-2.625,0.5-3.125 c-1.625-0.125-3.25-0.125-3.625,3s-2.75,2-2.5,0.75s1-1.25,1-1.25s-3.875,0.5-3.375,3.875s4.5,1.875,5,1.375 c-1.625,0.5-2.636-1.202-0.625-1.75c1.727-0.47,2.75,0.25,4.875-0.125S74.295,44.984,74.045,42.109z"/><path fill="#472b29" d="M64.356,50.248c-0.332,0-0.664-0.042-0.974-0.145c-0.89-0.294-1.424-1.001-1.587-2.101 c-0.141-0.952,0.044-1.773,0.549-2.441c0.854-1.127,2.348-1.474,2.802-1.555c0.084-0.021,0.14-0.022,0.148-0.022 c0.065,0,0.12,0.051,0.125,0.117c0.004,0.066-0.044,0.124-0.109,0.132c-0.002,0-0.048,0.007-0.127,0.021 c-0.195,0.058-0.596,0.28-0.766,1.129c-0.063,0.315,0.068,0.653,0.343,0.882c0.279,0.233,0.631,0.3,0.946,0.176 c0.502-0.2,0.845-0.856,0.964-1.847c0.403-3.367,2.34-3.219,3.759-3.11c0.056,0.004,0.103,0.045,0.113,0.101 c0.011,0.055-0.017,0.111-0.067,0.136c-0.545,0.273-1.148,0.948-1.193,1.662c-0.03,0.494,0.207,0.914,0.707,1.247 c0.709,0.443,1.367,0.549,1.956,0.312c1.388-0.561,1.973-2.841,1.979-2.864c0.015-0.059,0.069-0.102,0.131-0.094 c0.061,0.005,0.109,0.053,0.115,0.114c0.267,3.073-0.847,5.133-2.979,5.509c-1.056,0.187-1.862,0.105-2.571,0.033 c-0.739-0.075-1.434-0.145-2.292,0.089c-0.563,0.153-0.931,0.421-1.01,0.735c-0.05,0.198,0.021,0.405,0.192,0.568 c0.243,0.229,0.73,0.406,1.372,0.207c0.058-0.017,0.114,0.005,0.145,0.055c0.029,0.049,0.021,0.112-0.019,0.153 C66.746,49.71,65.545,50.248,64.356,50.248z M64.556,44.414c-0.614,0.194-1.467,0.578-2.012,1.299 c-0.463,0.612-0.631,1.37-0.5,2.252c0.147,0.999,0.625,1.639,1.417,1.901c0.961,0.317,2.15,0.008,2.84-0.292 c-0.429-0.01-0.762-0.171-0.962-0.361c-0.239-0.228-0.335-0.523-0.263-0.811c0.06-0.237,0.293-0.672,1.186-0.915 c0.904-0.246,1.623-0.174,2.383-0.097c0.729,0.073,1.482,0.149,2.504-0.031c1.835-0.324,2.859-2.015,2.809-4.574 c-0.289,0.762-0.894,1.974-1.919,2.387c-0.666,0.269-1.4,0.156-2.185-0.334c-0.725-0.483-0.846-1.067-0.82-1.473 c0.041-0.667,0.488-1.285,0.99-1.659c-1.573-0.073-2.782,0.23-3.104,2.915c-0.176,1.466-0.777,1.914-1.12,2.05 c-0.4,0.159-0.847,0.077-1.198-0.216c-0.346-0.288-0.509-0.718-0.429-1.123C64.258,44.906,64.4,44.614,64.556,44.414z"/><path fill="#472b29" d="M56.001,75.7c-0.046,0-0.092-0.005-0.139-0.014c-0.379-0.076-0.625-0.445-0.549-0.824 c0.01-0.051,1.031-5.112,3.022-11.084c1.646-4.938,5.647-6.235,10.714-7.877c0.56-0.181,1.136-0.368,1.729-0.566 c3.705-1.235,4.453-2.768,4.568-3.574C72.837,51.984,64.585,52.7,62,52.7c-1.459,0-2.626-0.627-3.286-1.765 c-0.933-1.606-0.686-3.896,0.679-6.283c3.646-6.379,14.217-11.023,16.8-12.083c-0.513-2.153-2.014-6.244-4.567-6.244 c-1.496,0-2.909,0.661-4.275,1.301C66.17,28.178,65.055,28.7,64,28.7c-0.698,0-1.521-0.237-2.476-0.512 c-2.073-0.597-4.657-1.34-7.211-0.062c-1.966,0.861-3.561,1.631-5.026,3.184c-0.213,0.225-0.547,0.284-0.823,0.145 c-3.379-1.694-7.143-0.955-9.812,0.392c2.223,0.874,4.065,2.093,5.011,4.93c0.081,0.242,0.023,0.51-0.15,0.697 c-0.174,0.188-0.436,0.265-0.684,0.204c-3.396-0.849-5.95-0.948-8.432,1.009c3.316,1.175,4.326,3.195,5.228,4.999 c0.108,0.217,0.097,0.475-0.03,0.681C39.468,44.574,39.243,44.7,39,44.7c-2.608,0-5.087,0-7.568,1.958 c3.322,0.957,5.249,2.171,6.232,5.12c0.071,0.214,0.035,0.448-0.096,0.631C37.437,52.592,37.225,52.7,37,52.7 c-2.67,0-5.161,0.852-8.098,2.809c3.373,0.747,5.806,3.342,6.724,5.178c0.108,0.217,0.097,0.475-0.03,0.681 C35.468,61.574,35.243,61.7,35,61.7c-3.277,0-6.148,1.874-7.566,2.989c2.945,0.986,5.025,2.664,6.192,4.999 c0.086,0.172,0.098,0.373,0.031,0.554c-0.066,0.181-0.204,0.327-0.381,0.403c-3.32,1.423-5.262,3.333-5.282,3.352 c-0.272,0.272-0.716,0.272-0.989-0.002c-0.273-0.273-0.273-0.716,0-0.989c0.08-0.08,1.867-1.847,5.011-3.33 c-1.212-1.93-3.289-3.272-6.186-3.996c-0.245-0.061-0.438-0.249-0.505-0.492c-0.067-0.243,0.001-0.503,0.18-0.682 c0.158-0.158,3.646-3.594,8.284-4.134C32.545,58.68,30.088,56.7,27,56.7c-0.301,0-0.569-0.193-0.664-0.479 c-0.095-0.286,0.003-0.601,0.244-0.781c3.482-2.611,6.354-3.875,9.397-4.102c-1.005-2.045-2.823-2.827-6.147-3.658 c-0.245-0.061-0.438-0.249-0.505-0.492c-0.067-0.243,0.001-0.503,0.18-0.682c2.811-2.811,5.616-3.156,8.349-3.199 c-0.858-1.556-1.974-2.865-5.023-3.627c-0.245-0.061-0.438-0.249-0.505-0.492c-0.067-0.243,0.001-0.503,0.18-0.682 c2.875-2.875,5.76-3.192,9.311-2.49c-0.947-1.711-2.493-2.503-5.037-3.351c-0.254-0.084-0.437-0.306-0.473-0.571 c-0.036-0.265,0.083-0.527,0.306-0.676c2.849-1.899,7.645-3.361,12.016-1.432c1.546-1.504,3.228-2.311,5.092-3.127 c3.011-1.508,6.006-0.646,8.192-0.016C62.765,27.088,63.5,27.3,64,27.3c0.743,0,1.721-0.458,2.756-0.942 c1.436-0.672,3.062-1.433,4.869-1.433c4.529,0,6.003,7.622,6.063,7.947c0.062,0.332-0.122,0.66-0.438,0.782 c-0.127,0.049-12.814,4.993-16.644,11.694c-1.093,1.913-1.349,3.739-0.684,4.885C60.329,50.931,61.047,51.3,62,51.3 c2.935,0,13.827-0.987,13.937-0.997c0.338-0.03,0.625,0.168,0.728,0.476c0.035,0.105,0.324,1.061-0.288,2.284 c-0.749,1.499-2.483,2.711-5.154,3.601c-0.598,0.199-1.178,0.387-1.739,0.569c-5.056,1.639-8.396,2.721-9.818,6.988 c-1.964,5.89-2.968,10.866-2.978,10.916C56.62,75.47,56.327,75.7,56.001,75.7z"/><circle cx="56" cy="37" r="1" fill="#472b29"/><ellipse cx="71.69" cy="30.023" fill="#00a5a5" rx="1.139" ry="1.637" transform="rotate(-16.947 71.681 30.02)"/><path fill="#472b29" d="M72.034,31.897c-0.649,0-1.297-0.577-1.563-1.448c-0.1-0.326-0.133-0.664-0.097-0.978 c0.016-0.136,0.126-0.239,0.276-0.22c0.138,0.016,0.235,0.14,0.22,0.277c-0.028,0.246-0.001,0.514,0.079,0.775 c0.219,0.719,0.798,1.21,1.254,1.068c0.211-0.064,0.376-0.253,0.466-0.531c0.101-0.311,0.094-0.685-0.02-1.055 c-0.112-0.37-0.315-0.685-0.572-0.887c-0.229-0.181-0.474-0.246-0.682-0.181c-0.13,0.04-0.271-0.034-0.313-0.166 c-0.04-0.132,0.034-0.272,0.166-0.312c0.369-0.112,0.775-0.019,1.138,0.267c0.336,0.264,0.599,0.667,0.741,1.134 s0.148,0.948,0.017,1.354c-0.142,0.439-0.424,0.743-0.795,0.856C72.246,31.882,72.141,31.897,72.034,31.897z"/><path fill="#c5def0" d="M49,35c0,0,2-3,6-3s3,0,7,1s2,4-1,4S53,34,49,35z"/><path fill="#472b29" d="M61.211,37.48c-1.533,0-3.227-0.705-4.547-1.254c-0.48-0.2-0.895-0.372-1.243-0.489 c-1.388-0.462-2.277-0.687-3.073-0.773c-0.137-0.015-0.236-0.138-0.221-0.276c0.015-0.137,0.12-0.237,0.275-0.221 c0.833,0.091,1.753,0.322,3.177,0.796c0.366,0.122,0.809,0.306,1.277,0.501c2.361,0.983,5.596,2.329,7.048-0.382 c0.065-0.122,0.216-0.167,0.339-0.102c0.122,0.065,0.167,0.217,0.103,0.339C63.598,37.013,62.457,37.48,61.211,37.48z"/><path fill="#472b29" d="M49,35.25c-0.117,0-0.221-0.082-0.245-0.201c-0.027-0.135,0.061-0.267,0.196-0.294 c0.768-0.154,1.299-0.24,1.773-0.288c0.131-0.01,0.26,0.086,0.274,0.224c0.014,0.137-0.086,0.26-0.223,0.274 c-0.458,0.046-0.975,0.13-1.727,0.281C49.033,35.249,49.016,35.25,49,35.25z"/><path fill="#472b29" d="M48.223,68.402c-0.028,0-0.057,0-0.086-0.001c-0.634-0.019-1.153-0.245-1.542-0.672 c-0.853-0.934-0.767-2.498-0.763-2.564c0.008-0.138,0.125-0.241,0.265-0.234c0.138,0.009,0.243,0.127,0.234,0.265 c-0.001,0.014-0.076,1.421,0.634,2.197c0.299,0.327,0.687,0.493,1.187,0.508c1.97,0.071,2.417-2.399,2.434-2.504 c0.022-0.136,0.156-0.228,0.287-0.206c0.137,0.022,0.229,0.15,0.207,0.287C51.074,65.507,50.578,68.402,48.223,68.402z"/><path fill="#472b29" d="M52.971,68.532c-0.028,0-0.058,0-0.087-0.001c-0.633-0.019-1.152-0.245-1.542-0.672 c-0.853-0.934-0.767-2.498-0.763-2.564c0.009-0.138,0.122-0.241,0.265-0.234c0.138,0.009,0.243,0.127,0.235,0.265 c-0.001,0.014-0.076,1.421,0.634,2.198c0.3,0.327,0.688,0.493,1.188,0.508c1.976,0.063,2.429-2.478,2.433-2.504 c0.022-0.135,0.146-0.229,0.287-0.207c0.136,0.022,0.229,0.15,0.207,0.287C55.821,65.637,55.324,68.532,52.971,68.532z"/><path fill="#472b29" d="M57.648,68.656c-0.002,0-0.005,0-0.008,0c-0.633-0.019-1.152-0.245-1.542-0.672 c-0.853-0.934-0.768-2.498-0.764-2.564c0.01-0.137,0.135-0.239,0.265-0.234c0.138,0.009,0.243,0.127,0.235,0.265 c-0.001,0.014-0.076,1.421,0.634,2.198c0.3,0.327,0.688,0.493,1.188,0.508c0.138,0.004,0.246,0.119,0.242,0.257 C57.895,68.549,57.783,68.656,57.648,68.656z"/><path fill="#472b29" d="M45.552,71.383c-0.029,0-0.058,0-0.086-0.001c-0.633-0.019-1.152-0.245-1.542-0.672 c-0.853-0.935-0.767-2.498-0.763-2.564c0.009-0.138,0.122-0.244,0.265-0.234c0.138,0.009,0.243,0.127,0.234,0.265 c-0.001,0.014-0.076,1.421,0.634,2.198c0.299,0.327,0.688,0.493,1.187,0.508c1.986,0.059,2.417-2.399,2.434-2.504 c0.022-0.136,0.151-0.228,0.287-0.206c0.136,0.022,0.229,0.15,0.207,0.287C48.403,68.488,47.907,71.383,45.552,71.383z"/><path fill="#472b29" d="M50.3,71.513c-0.028,0-0.057,0-0.086-0.001C49.805,71.5,49.44,71.4,49.13,71.215 c-0.119-0.07-0.158-0.224-0.087-0.343c0.069-0.118,0.222-0.159,0.342-0.087c0.237,0.141,0.521,0.217,0.843,0.226 c0.023,0.001,0.047,0.001,0.07,0.001c1.93,0,2.346-2.401,2.363-2.505c0.022-0.135,0.144-0.229,0.287-0.206 c0.137,0.022,0.229,0.15,0.207,0.286C53.15,68.618,52.654,71.513,50.3,71.513z"/><path fill="#472b29" d="M48.625,70.614c-0.083,0-0.166-0.042-0.212-0.118c-0.576-0.931-0.508-2.167-0.504-2.219 c0.008-0.138,0.129-0.244,0.265-0.234c0.138,0.009,0.243,0.127,0.234,0.265c0,0.011-0.061,1.132,0.43,1.926 c0.073,0.117,0.037,0.271-0.081,0.344C48.715,70.602,48.67,70.614,48.625,70.614z"/><path fill="#472b29" d="M55.057,71.638c-0.028,0-0.058,0-0.087-0.001c-0.633-0.019-1.152-0.245-1.542-0.672 c-0.853-0.934-0.768-2.498-0.764-2.564c0.01-0.137,0.131-0.24,0.265-0.234c0.138,0.009,0.243,0.127,0.235,0.265 c-0.001,0.014-0.076,1.421,0.634,2.197c0.3,0.327,0.688,0.493,1.188,0.508c0.023,0.001,0.047,0.001,0.069,0.001 c1.931,0,2.347-2.401,2.363-2.505c0.022-0.135,0.147-0.229,0.287-0.206c0.137,0.022,0.229,0.15,0.207,0.286 C57.907,68.743,57.411,71.638,55.057,71.638z"/><path fill="#472b29" d="M42.765,74.207c-0.029,0-0.058,0-0.086-0.001c-0.633-0.019-1.152-0.245-1.542-0.672 c-0.853-0.935-0.767-2.498-0.763-2.564c0.009-0.138,0.123-0.244,0.265-0.234c0.138,0.009,0.243,0.127,0.234,0.265 c-0.001,0.014-0.076,1.421,0.634,2.198c0.299,0.327,0.688,0.493,1.187,0.508c1.988,0.062,2.417-2.399,2.434-2.504 c0.022-0.136,0.153-0.228,0.287-0.206c0.136,0.022,0.229,0.15,0.207,0.287C45.616,71.312,45.12,74.207,42.765,74.207z"/><path fill="#472b29" d="M47.512,74.337c-0.028,0-0.057,0-0.086-0.001c-0.634-0.019-1.153-0.245-1.542-0.672 c-0.853-0.934-0.767-2.498-0.763-2.564c0.009-0.138,0.131-0.244,0.265-0.234c0.138,0.009,0.243,0.127,0.234,0.265 c-0.001,0.014-0.076,1.421,0.634,2.197c0.299,0.327,0.687,0.493,1.187,0.508c1.989,0.057,2.417-2.399,2.434-2.504 c0.022-0.136,0.155-0.228,0.287-0.206c0.136,0.022,0.229,0.15,0.207,0.287C50.363,71.442,49.867,74.336,47.512,74.337z"/><path fill="#472b29" d="M52.269,74.462c-0.028,0-0.058,0-0.087-0.001c-0.633-0.019-1.151-0.245-1.542-0.672 c-0.853-0.934-0.767-2.498-0.763-2.564c0.008-0.138,0.13-0.239,0.265-0.234c0.138,0.009,0.243,0.127,0.234,0.265 c-0.001,0.014-0.076,1.421,0.635,2.198c0.299,0.327,0.687,0.493,1.187,0.508c0.022,0.001,0.046,0.001,0.068,0.001 c1.938,0,2.361-2.479,2.365-2.505c0.023-0.135,0.143-0.229,0.287-0.207c0.136,0.022,0.229,0.15,0.207,0.287 C55.12,71.567,54.623,74.461,52.269,74.462z"/><path fill="#472b29" d="M56.25,74.473c-0.03,0-0.061-0.005-0.09-0.017c-1.657-0.637-1.532-2.987-1.526-3.086 c0.01-0.137,0.13-0.237,0.265-0.234c0.138,0.008,0.243,0.127,0.235,0.265c-0.002,0.021-0.108,2.084,1.206,2.589 c0.129,0.05,0.193,0.194,0.144,0.323C56.445,74.412,56.351,74.473,56.25,74.473z"/><path fill="#472b29" d="M46.38,65.439c-0.028,0-0.057,0-0.086-0.001c-0.634-0.019-1.153-0.245-1.542-0.672 c-0.853-0.934-0.767-2.497-0.763-2.563c0.009-0.138,0.124-0.239,0.265-0.234c0.138,0.009,0.243,0.127,0.234,0.265 c-0.001,0.014-0.076,1.421,0.634,2.197c0.299,0.327,0.687,0.493,1.187,0.508c2.009,0.06,2.417-2.399,2.434-2.504 c0.022-0.136,0.155-0.228,0.287-0.206c0.136,0.022,0.229,0.15,0.207,0.287C49.231,62.544,48.734,65.439,46.38,65.439z"/><g><path fill="#472b29" d="M51.127,65.569c-0.028,0-0.058,0-0.087-0.001c-0.454-0.014-0.852-0.135-1.184-0.361 c-0.114-0.078-0.144-0.233-0.066-0.347c0.078-0.115,0.235-0.144,0.347-0.066c0.252,0.171,0.561,0.264,0.918,0.274 c0.023,0.001,0.047,0.001,0.069,0.001c1.931,0,2.348-2.402,2.364-2.505c0.022-0.135,0.148-0.229,0.287-0.206 c0.137,0.022,0.229,0.15,0.207,0.287C53.979,62.674,53.481,65.569,51.127,65.569z"/></g><g><path fill="#472b29" d="M49.297,64.375c-0.095,0-0.187-0.055-0.228-0.148c-0.392-0.872-0.336-1.854-0.333-1.896 c0.009-0.138,0.132-0.238,0.265-0.234c0.138,0.009,0.243,0.127,0.234,0.265c0,0.009-0.049,0.903,0.291,1.66 c0.057,0.126,0,0.274-0.125,0.33C49.366,64.368,49.331,64.375,49.297,64.375z"/></g><g><path fill="#472b29" d="M55.884,65.694c-0.028,0-0.058,0-0.087-0.001c-0.633-0.019-1.152-0.245-1.542-0.672 c-0.853-0.934-0.768-2.498-0.764-2.564c0.01-0.138,0.132-0.241,0.265-0.234c0.138,0.009,0.243,0.127,0.235,0.265 c-0.001,0.014-0.076,1.421,0.634,2.198c0.3,0.327,0.688,0.493,1.188,0.508c0.022,0.001,0.045,0.001,0.067,0.001 c1.938,0,2.361-2.479,2.365-2.505c0.022-0.136,0.146-0.23,0.287-0.207c0.136,0.022,0.229,0.15,0.207,0.287 C58.734,62.799,58.238,65.694,55.884,65.694z"/></g><g><path fill="#472b29" d="M53.809,62.722c-0.028,0-0.058,0-0.087-0.001c-0.633-0.019-1.151-0.245-1.541-0.672 c-0.853-0.934-0.768-2.498-0.764-2.564c0.009-0.137,0.129-0.242,0.265-0.234c0.138,0.009,0.243,0.127,0.235,0.265 c-0.001,0.014-0.076,1.421,0.634,2.198c0.299,0.327,0.688,0.493,1.187,0.508c0.022,0.001,0.046,0.001,0.068,0.001 c1.938,0,2.361-2.479,2.365-2.505c0.022-0.135,0.146-0.23,0.287-0.207c0.136,0.022,0.229,0.15,0.207,0.287 C56.66,59.826,56.163,62.721,53.809,62.722z"/></g><g><path fill="#472b29" d="M58.557,62.852c-0.028,0-0.058,0-0.087-0.001c-0.633-0.019-1.152-0.245-1.542-0.672 c-0.853-0.934-0.768-2.498-0.764-2.564c0.01-0.137,0.133-0.243,0.265-0.234c0.138,0.009,0.243,0.127,0.235,0.265 c-0.001,0.014-0.076,1.421,0.634,2.197c0.3,0.327,0.688,0.493,1.188,0.508c1.974,0.068,2.429-2.478,2.433-2.504 c0.022-0.135,0.144-0.23,0.287-0.207c0.136,0.022,0.229,0.15,0.207,0.287C61.407,59.956,60.91,62.851,58.557,62.852z"/></g><g><path fill="#472b29" d="M34,75.25c-0.01,0-0.02,0-0.029-0.002c-0.137-0.016-0.236-0.14-0.22-0.277 c0.715-6.218,1.774-12.159,3.149-17.657c0.033-0.134,0.169-0.216,0.303-0.182c0.134,0.033,0.215,0.169,0.182,0.303 c-1.37,5.477-2.426,11.396-3.138,17.593C34.234,75.156,34.125,75.25,34,75.25z"/></g><g><path fill="#472b29" d="M37.663,55.625c-0.021,0-0.043-0.003-0.065-0.009c-0.133-0.036-0.212-0.173-0.176-0.306 c1.341-4.978,2.945-9.574,4.768-13.662c0.056-0.126,0.205-0.183,0.331-0.126c0.126,0.056,0.183,0.204,0.126,0.33 c-1.813,4.064-3.408,8.635-4.743,13.588C37.875,55.552,37.773,55.625,37.663,55.625z"/></g><g><path fill="#472b29" d="M43.375,39.945c-0.037,0-0.074-0.008-0.109-0.025c-0.124-0.06-0.176-0.21-0.115-0.334 c2.126-4.374,3.712-6.406,3.778-6.49c0.086-0.108,0.243-0.127,0.351-0.042c0.108,0.085,0.127,0.242,0.042,0.351 c-0.016,0.021-1.622,2.081-3.722,6.4C43.557,39.893,43.467,39.945,43.375,39.945z"/></g><g><path fill="#472b29" d="M58.104,53.454c-0.395,0-0.779-0.026-1.141-0.082c-0.137-0.021-0.23-0.148-0.21-0.285 c0.021-0.136,0.138-0.232,0.284-0.209c1.478,0.224,3.419-0.072,4.728-0.718c0.124-0.061,0.274-0.01,0.335,0.113 c0.061,0.124,0.01,0.274-0.114,0.335C60.894,53.148,59.441,53.454,58.104,53.454z"/></g><g><path fill="#472b29" d="M55.625,52.947c-0.041,0-0.082-0.01-0.12-0.031c-0.991-0.541-1.344-1.458-0.993-2.583 c0.202-0.65,0.591-1.398,1.156-2.224c0.078-0.114,0.233-0.143,0.348-0.065c0.113,0.078,0.143,0.233,0.064,0.347 c-0.536,0.785-0.903,1.488-1.092,2.09c-0.279,0.898-0.025,1.569,0.757,1.995c0.121,0.066,0.165,0.218,0.1,0.339 C55.799,52.9,55.713,52.947,55.625,52.947z"/></g><g><path fill="#472b29" d="M57.023,47c-0.057,0-0.113-0.019-0.16-0.058c-0.106-0.089-0.12-0.246-0.031-0.352 c1.85-2.207,4.108-4.135,4.131-4.155c0.105-0.089,0.262-0.078,0.353,0.029c0.09,0.105,0.077,0.263-0.028,0.352 c-0.022,0.019-2.25,1.921-4.072,4.095C57.166,46.969,57.095,47,57.023,47z"/></g></svg>